<?xml version="1.0" encoding="utf-8"?>
<!-- Generator: Adobe Illustrator 16.0.3, SVG Export Plug-In . SVG Version: 6.00 Build 0)  -->
<!DOCTYPE svg PUBLIC "-//W3C//DTD SVG 1.1//EN" "http://www.w3.org/Graphics/SVG/1.1/DTD/svg11.dtd">
<svg version="1.1" id="Layer_1" xmlns="http://www.w3.org/2000/svg" xmlns:xlink="http://www.w3.org/1999/xlink" x="0px" y="0px"
	 width="594px" height="480px" viewBox="0 0 594 480" enable-background="new 0 0 594 480" xml:space="preserve">
<path d="M585.229,381.414c-13.301-29.514-45.49-44.615-77.996-37.436l-96.092-213.033c9.512-7.338,17.354-17.484,22.918-29.83
	c2.596-5.697,3.867-11.605,4.609-17.592c2.648-12.982,1.695-26.572-4.027-39.264c-11.764-26.096-36.879-41.488-63.318-40.561
	c-26.441-0.928-51.57,14.465-63.32,40.561c-5.734,12.691-6.689,26.281-4.039,39.264c0.729,5.986,2.014,11.895,4.596,17.592
	c5.564,12.346,13.42,22.492,22.943,29.83L235.557,343.66c-3.629-0.689-7.313-1.086-11.074-1.166
	c-1.205-0.105-2.385-0.105-3.602-0.105c-1.207,0-2.385,0-3.59,0.105c-3.775,0.08-7.445,0.477-11.074,1.166l-97.23-215.576
	c26.877-19.631,38.096-54.283,24.783-83.824C118.338,10.031,79.897-5.998,45.667,9.422C11.477,24.867-7.755,66.885,7.69,101.115
	c13.313,29.539,39.09,47.502,71.598,40.35l97.256,215.627c-2.689,2.146-5.219,4.426-7.537,6.969
	c-7.59,7.604-12.252,16.398-14.545,25.83c-9.975,32.004,3.113,66.18,34.547,80.354c10.188,4.611,21.129,6.254,31.873,5.883
	c10.756,0.371,21.684-1.271,31.883-5.883c31.436-14.174,44.51-48.35,34.535-80.354c-2.293-9.432-6.941-18.227-14.531-25.83
	c-2.332-2.543-4.861-4.822-7.551-6.969l96.727-214.488c3.072,0.238,6.146,0.264,9.379,0c3.178,0.264,6.305,0.238,9.352,0
	l96.832,214.754c-26.863,19.631-29.539,50.443-16.213,79.982c15.418,34.203,58.125,48.324,92.355,32.904
	C587.877,454.799,600.674,415.643,585.229,381.414z"/>
</svg>
