<?xml version="1.0" encoding="utf-8"?>
<!-- Generator: Adobe Illustrator 16.0.3, SVG Export Plug-In . SVG Version: 6.00 Build 0)  -->
<!DOCTYPE svg PUBLIC "-//W3C//DTD SVG 1.1//EN" "http://www.w3.org/Graphics/SVG/1.1/DTD/svg11.dtd">
<svg version="1.1" id="Layer_1" xmlns="http://www.w3.org/2000/svg" xmlns:xlink="http://www.w3.org/1999/xlink" x="0px" y="0px"
	 width="1920px" height="1080px" viewBox="0 0 1920 1080" enable-background="new 0 0 1920 1080" xml:space="preserve">
<rect fill="#9EDAE7" width="1920" height="1080"/>
<g>
	<g>
		<g>
			
				<rect x="542.828" y="311.431" transform="matrix(0.8984 -0.4392 0.4392 0.8984 -115.8904 426.4041)" fill="#53A979" width="641.392" height="304.426"/>
		</g>
		<g>
			<path fill="#A8D4BD" d="M1115.487,466.652c0,0,0.099,0.016,0.082-0.021c-13.271-27.146-2.243-59.669,25.01-73.236
				l-51.624-105.589c-27.443,13.178-60.091,1.522-73.059-24.857L611.441,460.693c12.852,26.435,1.731,59.966-25.497,73.28
				c-0.121,0.057-0.584,0.049-0.584,0.049l51.624,105.589c0,0,0.366-0.188,0.485-0.246c27.265-13.334,60.181-2.189,73.51,25.076
				c0.019,0.035,0.057-0.043,0.057-0.043L1115.487,466.652z"/>
		</g>
		<g>
			<path fill="#4EB67F" d="M946.065,422.977c22.361,45.733,3.413,100.936-42.324,123.297c-45.731,22.36-100.933,3.41-123.294-42.323
				c-22.358-45.735-3.41-100.937,42.323-123.295C868.506,358.295,923.709,377.242,946.065,422.977"/>
		</g>
		<g>
			<path fill="#4EB67F" d="M739.474,524.535c11.037,22.573,1.684,49.82-20.89,60.858c-22.572,11.037-49.82,1.682-60.857-20.892
				c-11.034-22.572-1.685-49.818,20.889-60.855C701.19,492.608,728.438,501.962,739.474,524.535"/>
		</g>
		<g>
			<path fill="#4EB67F" d="M1065.431,364.274c11.037,22.573,1.685,49.823-20.889,60.858c-22.575,11.038-49.821,1.685-60.858-20.893
				c-11.035-22.569-1.684-49.818,20.891-60.854C1027.147,332.349,1054.396,341.702,1065.431,364.274"/>
		</g>
		<g>
			<path fill="#C6E4CF" d="M829.32,400.582c-34.854,18.364-48.228,61.522-29.861,96.375c3.671,6.969,8.33,13.072,13.719,18.244
				l18.876-9.948l-27.982-53.104l62.646,19.409l19.409-62.646l27.981,53.106l18.879-9.946c-1.218-7.367-3.618-14.664-7.29-21.633
				C907.333,395.586,864.175,382.215,829.32,400.582"/>
		</g>
		<g>
			<path fill="#C6E4CF" d="M862.255,485.961l-27.339-8.472l17.605,33.418l-6.844,3.604l-6.846,3.607l-12.906,6.801
				c20.658,12.34,47.065,13.936,69.911,1.899c22.841-12.036,36.457-34.722,37.958-58.737l-12.908,6.801l-12.242,6.453l-1.446,0.761
				l-17.607-33.418l-8.472,27.342l-4.461,14.402L862.255,485.961z"/>
		</g>
		<g>
			<path fill="#C6E4CF" d="M687.113,560.983l-3.291-2.259c-1.303-0.842-2.132-1.393-2.96-1.999l-0.042,0.021
				c-0.008,1.005-0.045,1.949-0.187,3.531l-0.214,3.908l-2.092,1l0.896-9.194l-7.475-4.984l2.111-1.01l3.443,2.415
				c0.965,0.668,1.701,1.19,2.438,1.763l0.064-0.03c-0.002-1.027,0.041-1.845,0.134-2.994l0.344-4.226l2.09-1.001l-1.004,8.912
				l7.855,5.135L687.113,560.983z"/>
			<path fill="#C6E4CF" d="M700.263,547.082c-1.046-1.917-2.303-4.22-3.12-5.987l-0.064,0.03c0.31,1.883,0.564,3.92,0.783,6.204
				l0.785,8.031l-1.38,0.661l-5.492-5.623c-1.62-1.668-3.057-3.217-4.255-4.701l-0.042,0.021c0.801,1.776,1.825,4.189,2.711,6.364
				l2.515,6.223l-1.732,0.831l-5.765-14.568l2.32-1.109l5.668,5.668c1.416,1.453,2.64,2.771,3.695,4.066l0.062-0.03
				c-0.324-1.594-0.563-3.38-0.785-5.458l-0.753-8.021l2.32-1.11l7.626,13.677l-1.777,0.852L700.263,547.082z"/>
			<path fill="#C6E4CF" d="M701.515,536.998c0.831-0.631,2.098-1.365,3.354-1.966c1.944-0.931,3.37-1.176,4.627-0.802
				c1.013,0.286,1.869,1.061,2.391,2.146c0.892,1.863,0.31,3.657-0.933,4.869l0.028,0.064c1.269-0.144,2.396,0.547,3.431,1.854
				c1.4,1.744,2.388,2.943,2.941,3.348l-1.885,0.9c-0.419-0.287-1.313-1.35-2.553-2.917c-1.348-1.742-2.45-2.116-4.134-1.388
				l-1.715,0.819l2.923,6.107l-1.82,0.871L701.515,536.998z M706.406,542.547l1.862-0.892c1.944-0.931,2.667-2.586,1.897-4.198
				c-0.871-1.818-2.568-1.984-4.503-1.084c-0.878,0.421-1.466,0.806-1.719,1.029L706.406,542.547z"/>
		</g>
		<g>
			<path fill="#C6E4CF" d="M1015.791,401.153l-3.291-2.256c-1.303-0.842-2.131-1.396-2.962-2.001l-0.043,0.021
				c-0.006,1.006-0.044,1.95-0.184,3.534l-0.215,3.906l-2.091,1.001l0.896-9.194l-7.475-4.984l2.114-1.011l3.444,2.415
				c0.961,0.668,1.699,1.189,2.436,1.764l0.062-0.03c-0.002-1.027,0.044-1.845,0.137-2.995l0.342-4.225l2.092-1.003l-1.005,8.913
				l7.856,5.136L1015.791,401.153z"/>
			<path fill="#C6E4CF" d="M1028.939,387.252c-1.046-1.914-2.302-4.218-3.123-5.984l-0.064,0.029
				c0.312,1.881,0.566,3.92,0.788,6.204l0.783,8.032l-1.38,0.658l-5.494-5.622c-1.62-1.667-3.057-3.215-4.254-4.699l-0.041,0.021
				c0.8,1.777,1.825,4.191,2.711,6.363l2.517,6.225l-1.737,0.83l-5.762-14.567l2.322-1.11l5.666,5.668
				c1.418,1.454,2.639,2.773,3.694,4.066l0.063-0.03c-0.325-1.593-0.563-3.381-0.785-5.458l-0.754-8.021l2.322-1.109l7.624,13.677
				l-1.778,0.852L1028.939,387.252z"/>
			<path fill="#C6E4CF" d="M1030.191,377.168c0.83-0.629,2.098-1.365,3.353-1.964c1.945-0.931,3.37-1.176,4.63-0.802
				c1.012,0.287,1.869,1.06,2.388,2.146c0.892,1.861,0.311,3.657-0.935,4.869l0.03,0.063c1.27-0.144,2.398,0.55,3.433,1.854
				c1.401,1.747,2.387,2.944,2.939,3.35l-1.882,0.9c-0.421-0.286-1.314-1.35-2.553-2.918c-1.35-1.745-2.452-2.115-4.135-1.389
				l-1.714,0.822l2.922,6.107l-1.821,0.87L1030.191,377.168z M1035.085,382.719l1.861-0.891c1.944-0.931,2.668-2.589,1.897-4.199
				c-0.87-1.82-2.569-1.984-4.503-1.084c-0.878,0.422-1.467,0.805-1.718,1.027L1035.085,382.719z"/>
		</g>
	</g>
	<g>
		<g>
			
				<rect x="735.78" y="464.141" transform="matrix(0.8984 -0.4392 0.4392 0.8984 -163.3563 526.6735)" fill="#53A979" width="641.392" height="304.425"/>
		</g>
		<g>
			<path fill="#A8D4BD" d="M1308.439,619.361c0,0,0.099,0.016,0.082-0.02c-13.271-27.146-2.243-59.67,25.01-73.236l-51.624-105.59
				c-27.443,13.178-60.091,1.523-73.059-24.857L804.394,613.402c12.852,26.436,1.731,59.967-25.497,73.281
				c-0.121,0.057-0.584,0.049-0.584,0.049l51.624,105.588c0,0,0.366-0.188,0.485-0.246c27.265-13.334,60.181-2.189,73.51,25.076
				c0.019,0.035,0.057-0.043,0.057-0.043L1308.439,619.361z"/>
		</g>
		<g>
			<path fill="#4EB67F" d="M1139.018,575.686c22.361,45.734,3.413,100.936-42.324,123.297
				c-45.731,22.361-100.933,3.41-123.294-42.322c-22.358-45.736-3.41-100.938,42.323-123.295
				C1061.458,511.004,1116.661,529.951,1139.018,575.686"/>
		</g>
		<g>
			<path fill="#4EB67F" d="M932.426,677.244c11.037,22.574,1.684,49.82-20.89,60.859c-22.572,11.037-49.82,1.682-60.857-20.893
				c-11.034-22.572-1.685-49.818,20.889-60.855C894.143,645.318,921.39,654.672,932.426,677.244"/>
		</g>
		<g>
			<path fill="#4EB67F" d="M1258.383,516.984c11.037,22.572,1.685,49.822-20.889,60.857c-22.575,11.039-49.821,1.686-60.858-20.893
				c-11.035-22.568-1.684-49.818,20.891-60.854C1220.1,485.059,1247.348,494.412,1258.383,516.984"/>
		</g>
		<g>
			<path fill="#C6E4CF" d="M1022.272,553.291c-34.854,18.365-48.228,61.523-29.861,96.375c3.671,6.969,8.33,13.072,13.719,18.244
				l18.876-9.947l-27.982-53.105l62.646,19.41l19.409-62.646l27.981,53.105l18.879-9.945c-1.218-7.367-3.618-14.664-7.29-21.633
				C1100.285,548.295,1057.127,534.924,1022.272,553.291"/>
		</g>
		<g>
			<path fill="#C6E4CF" d="M1055.207,638.67l-27.339-8.471l17.605,33.418l-6.844,3.604l-6.846,3.607l-12.906,6.801
				c20.658,12.34,47.065,13.936,69.911,1.9c22.841-12.037,36.457-34.723,37.958-58.738l-12.908,6.801l-12.242,6.453l-1.446,0.762
				l-17.607-33.418l-8.472,27.342l-4.461,14.402L1055.207,638.67z"/>
		</g>
		<g>
			<path fill="#C6E4CF" d="M880.065,713.693l-3.291-2.26c-1.303-0.842-2.132-1.393-2.96-1.998l-0.042,0.02
				c-0.008,1.006-0.045,1.949-0.187,3.531l-0.214,3.908l-2.092,1l0.896-9.193l-7.475-4.984l2.111-1.01l3.443,2.414
				c0.965,0.668,1.701,1.191,2.438,1.764l0.064-0.031c-0.002-1.027,0.041-1.844,0.134-2.994l0.344-4.225l2.09-1.002l-1.004,8.912
				l7.855,5.135L880.065,713.693z"/>
			<path fill="#C6E4CF" d="M893.215,699.791c-1.046-1.916-2.303-4.219-3.12-5.986l-0.064,0.029c0.31,1.883,0.564,3.92,0.783,6.205
				l0.785,8.031l-1.38,0.66l-5.492-5.623c-1.62-1.668-3.057-3.217-4.255-4.701l-0.042,0.021c0.801,1.777,1.825,4.189,2.711,6.365
				l2.515,6.223l-1.732,0.83l-5.765-14.568l2.32-1.109l5.668,5.668c1.416,1.453,2.64,2.771,3.695,4.066l0.062-0.029
				c-0.324-1.594-0.563-3.381-0.785-5.459l-0.753-8.02l2.32-1.111l7.626,13.678l-1.777,0.852L893.215,699.791z"/>
			<path fill="#C6E4CF" d="M894.467,689.707c0.831-0.631,2.098-1.365,3.354-1.965c1.944-0.932,3.37-1.176,4.627-0.803
				c1.013,0.287,1.869,1.061,2.391,2.146c0.892,1.863,0.31,3.658-0.933,4.869l0.028,0.064c1.269-0.143,2.396,0.547,3.431,1.854
				c1.4,1.744,2.388,2.943,2.941,3.348l-1.885,0.9c-0.419-0.287-1.313-1.35-2.553-2.916c-1.348-1.742-2.45-2.117-4.134-1.389
				l-1.715,0.82l2.923,6.107l-1.82,0.871L894.467,689.707z M899.358,695.256l1.862-0.891c1.944-0.932,2.667-2.586,1.897-4.199
				c-0.871-1.818-2.568-1.984-4.503-1.084c-0.878,0.422-1.466,0.807-1.719,1.029L899.358,695.256z"/>
		</g>
		<g>
			<path fill="#C6E4CF" d="M1208.743,553.863l-3.291-2.256c-1.303-0.842-2.131-1.396-2.962-2.002l-0.043,0.021
				c-0.006,1.006-0.044,1.949-0.184,3.533l-0.215,3.906l-2.091,1.002l0.896-9.195l-7.475-4.984l2.114-1.01l3.444,2.414
				c0.961,0.668,1.699,1.189,2.436,1.764l0.062-0.029c-0.002-1.027,0.044-1.846,0.137-2.996l0.342-4.225l2.092-1.002l-1.005,8.912
				l7.856,5.137L1208.743,553.863z"/>
			<path fill="#C6E4CF" d="M1221.892,539.961c-1.046-1.914-2.302-4.217-3.123-5.984l-0.064,0.029
				c0.312,1.881,0.566,3.92,0.788,6.205l0.783,8.031l-1.38,0.658l-5.494-5.621c-1.62-1.668-3.057-3.215-4.254-4.699l-0.041,0.02
				c0.8,1.777,1.825,4.191,2.711,6.363l2.517,6.225l-1.737,0.83l-5.762-14.566l2.322-1.111l5.666,5.668
				c1.418,1.455,2.639,2.773,3.694,4.066l0.063-0.029c-0.325-1.594-0.563-3.381-0.785-5.459l-0.754-8.02l2.322-1.109l7.624,13.676
				l-1.778,0.852L1221.892,539.961z"/>
			<path fill="#C6E4CF" d="M1223.144,529.877c0.83-0.629,2.098-1.365,3.353-1.963c1.945-0.932,3.37-1.176,4.63-0.803
				c1.012,0.287,1.869,1.061,2.388,2.146c0.892,1.861,0.311,3.658-0.935,4.869l0.03,0.063c1.27-0.143,2.398,0.551,3.433,1.854
				c1.401,1.748,2.387,2.945,2.939,3.35l-1.882,0.9c-0.421-0.285-1.314-1.35-2.553-2.918c-1.35-1.744-2.452-2.115-4.135-1.389
				l-1.714,0.822l2.922,6.107l-1.821,0.871L1223.144,529.877z M1228.037,535.428l1.861-0.891c1.944-0.93,2.668-2.588,1.897-4.199
				c-0.87-1.82-2.569-1.984-4.503-1.084c-0.878,0.422-1.467,0.805-1.718,1.027L1228.037,535.428z"/>
		</g>
	</g>
</g>
<g>
	<circle fill="#4C4C4C" cx="960" cy="540" r="150.485"/>
	<g>
		<polygon fill="#FFFFFF" points="1037.836,540 923.676,617.838 923.676,541.417 923.676,462.163 		"/>
		<path fill="#FFFFFF" d="M923.676,623.026c-0.83,0-1.665-0.197-2.423-0.602c-1.702-0.897-2.766-2.662-2.766-4.587V462.163
			c0-1.925,1.063-3.69,2.766-4.588c1.701-0.902,3.757-0.778,5.35,0.301l114.161,77.837c1.41,0.965,2.262,2.568,2.262,4.286
			s-0.852,3.321-2.268,4.286l-114.16,77.837C925.721,622.721,924.698,623.026,923.676,623.026z M928.865,471.986V608.02l99.76-68.02
			L928.865,471.986z"/>
	</g>
</g>
</svg>
