<?xml version="1.0" encoding="utf-8"?>
<!-- Generator: Adobe Illustrator 16.0.3, SVG Export Plug-In . SVG Version: 6.00 Build 0)  -->
<!DOCTYPE svg PUBLIC "-//W3C//DTD SVG 1.1//EN" "http://www.w3.org/Graphics/SVG/1.1/DTD/svg11.dtd">
<svg version="1.1" id="Layer_1" xmlns="http://www.w3.org/2000/svg" xmlns:xlink="http://www.w3.org/1999/xlink" x="0px" y="0px"
	 width="1920px" height="1080px" viewBox="0 0 1920 1080" enable-background="new 0 0 1920 1080" xml:space="preserve">
<rect fill="#D8DCDE" width="1920" height="1080"/>
<g>
	<g opacity="0.35">
		<g opacity="0.32">
			<g>
				<g>
					<defs>
						<rect id="SVGID_1_" x="546.746" y="472.622" width="278" height="277.203"/>
					</defs>
					<clipPath id="SVGID_2_">
						<use xlink:href="#SVGID_1_"  overflow="visible"/>
					</clipPath>
					<path clip-path="url(#SVGID_2_)" fill="#434A54" d="M546.746,472.622v160.425c0,64.494,62.234,116.777,139,116.777
						c76.77,0,139-52.283,139-116.777V472.622H546.746z"/>
				</g>
			</g>
		</g>
		<path fill="#434A54" d="M827.317,463.536c0,24.871-20.178,45.19-45.07,45.19c-19.787,0-36.606-12.697-42.638-30.443
			c-7.37,23.139-29.051,39.933-54.644,39.933c-24.461,0-45.379-15.298-53.593-36.896c-7.289,15.07-22.731,25.475-40.602,25.475
			c-24.872,0-45.051-20.446-45.051-45.32c0-5.106,0.865-8.4,2.409-14.853h276.014C826.184,453.073,827.317,457.649,827.317,463.536"
			/>
		<g opacity="0.32">
			<g>
				<g>
					<defs>
						<rect id="SVGID_3_" x="824.746" y="556.945" width="27.654" height="53.535"/>
					</defs>
					<clipPath id="SVGID_4_">
						<use xlink:href="#SVGID_3_"  overflow="visible"/>
					</clipPath>
					<path clip-path="url(#SVGID_4_)" fill="#434A54" d="M825.637,556.945c-0.299,0-0.594,0.014-0.89,0.023v53.486
						c0.296,0.012,0.591,0.023,0.89,0.023c14.782,0,26.765-11.984,26.765-26.768C852.4,568.932,840.419,556.945,825.637,556.945"/>
				</g>
				<g>
					<defs>
						<rect id="SVGID_5_" x="824.746" y="556.945" width="27.654" height="53.535"/>
					</defs>
					<clipPath id="SVGID_6_">
						<use xlink:href="#SVGID_5_"  overflow="visible"/>
					</clipPath>
					<path clip-path="url(#SVGID_6_)" fill="#434A54" d="M825.785,567.238c-0.301,0-0.594,0.029-0.892,0.047v32.85
						c0.298,0.016,0.591,0.045,0.892,0.045c9.097,0,16.467-7.369,16.467-16.467S834.882,567.238,825.785,567.238"/>
				</g>
			</g>
		</g>
		<g opacity="0.32">
			<g>
				<g>
					<defs>
						<rect id="SVGID_7_" x="518.604" y="556.945" width="27.653" height="53.535"/>
					</defs>
					<clipPath id="SVGID_8_">
						<use xlink:href="#SVGID_7_"  overflow="visible"/>
					</clipPath>
					<path clip-path="url(#SVGID_8_)" fill="#434A54" d="M545.367,610.479c0.299,0,0.594-0.012,0.89-0.021v-53.488
						c-0.296-0.01-0.591-0.021-0.89-0.021c-14.782,0-26.766,11.984-26.766,26.768C518.602,598.496,530.585,610.479,545.367,610.479"
						/>
				</g>
				<g>
					<defs>
						<rect id="SVGID_9_" x="518.604" y="556.945" width="27.653" height="53.535"/>
					</defs>
					<clipPath id="SVGID_10_">
						<use xlink:href="#SVGID_9_"  overflow="visible"/>
					</clipPath>
					<path clip-path="url(#SVGID_10_)" fill="#434A54" d="M545.219,600.186c0.301,0,0.594-0.029,0.891-0.045v-32.852
						c-0.297-0.016-0.59-0.045-0.891-0.045c-9.098,0-16.467,7.371-16.467,16.467C528.752,592.809,536.121,600.186,545.219,600.186"
						/>
				</g>
			</g>
		</g>
		<g opacity="0.83">
			<g>
				<g>
					<defs>
						<rect id="SVGID_11_" x="637.746" y="741.551" width="90" height="90.994"/>
					</defs>
					<clipPath id="SVGID_12_">
						<use xlink:href="#SVGID_11_"  overflow="visible"/>
					</clipPath>
					<path clip-path="url(#SVGID_12_)" fill="#434A54" d="M686.928,749.08c-17.315,0-33.891-2.668-49.182-7.529v46.875
						c0,24.369,20.634,44.121,45,44.121c24.367,0,45-19.752,45-44.121v-44.467C714.839,747.287,701.133,749.08,686.928,749.08"/>
				</g>
			</g>
		</g>
		<path fill="#434A54" d="M728.338,782.119v6.307c0,24.369-20.633,44.121-45,44.121c-24.366,0-45-19.752-45-44.121v-4.191
			c-64.922,18.061-111.993,70.904-112.314,133.389h322.994C848.684,852.484,797.542,797.818,728.338,782.119"/>
		<rect x="518.604" y="446.622" fill="none" width="333.798" height="471"/>
	</g>
	<g opacity="0.33">
		<path fill="#434A54" d="M631.663,581.582c0,8.908-7.222,16.131-16.13,16.131c-8.907,0-16.126-7.223-16.126-16.131
			c0-8.906,7.219-16.129,16.126-16.129C624.441,565.453,631.663,572.676,631.663,581.582"/>
		<path fill="#434A54" d="M775.784,581.582c0,8.908-7.224,16.131-16.127,16.131c-8.907,0-16.13-7.223-16.13-16.131
			c0-8.906,7.223-16.129,16.13-16.129C768.563,565.453,775.784,572.676,775.784,581.582"/>
		<rect x="599.407" y="565.453" fill="none" width="176.377" height="32.26"/>
	</g>
	<g opacity="0.35">
		<path fill="#434A54" d="M688.23,704.127c-14.226,0-28.449-5.414-39.278-16.24c-3.779-3.779-3.779-9.906,0-13.686
			c3.773-3.779,9.903-3.777,13.683,0c14.12,14.113,37.082,14.111,51.19,0c3.78-3.779,9.902-3.779,13.682,0
			c3.78,3.777,3.78,9.904,0,13.684C716.679,698.713,702.454,704.127,688.23,704.127"/>
		<rect x="646.118" y="671.367" fill="none" width="84.225" height="32.76"/>
	</g>
	<g opacity="0.35">
		<g opacity="0.32">
			<g>
				<g>
					<defs>
						<rect id="SVGID_13_" x="1017.746" y="472.622" width="278" height="277.203"/>
					</defs>
					<clipPath id="SVGID_14_">
						<use xlink:href="#SVGID_13_"  overflow="visible"/>
					</clipPath>
					<path clip-path="url(#SVGID_14_)" fill="#434A54" d="M1017.746,472.622v160.425c0,64.494,62.234,116.777,139,116.777
						c76.769,0,139-52.283,139-116.777V472.622H1017.746z"/>
				</g>
			</g>
		</g>
		<path fill="#434A54" d="M1298.317,463.536c0,24.871-20.179,45.19-45.07,45.19c-19.787,0-36.607-12.697-42.638-30.443
			c-7.37,23.139-29.051,39.933-54.644,39.933c-24.461,0-45.379-15.298-53.593-36.896c-7.289,15.07-22.732,25.475-40.601,25.475
			c-24.873,0-45.052-20.446-45.052-45.32c0-5.106,0.865-8.4,2.409-14.853h276.014
			C1297.183,453.073,1298.317,457.649,1298.317,463.536"/>
		<g opacity="0.32">
			<g>
				<g>
					<defs>
						<rect id="SVGID_15_" x="1295.746" y="556.945" width="27.65" height="53.535"/>
					</defs>
					<clipPath id="SVGID_16_">
						<use xlink:href="#SVGID_15_"  overflow="visible"/>
					</clipPath>
					<path clip-path="url(#SVGID_16_)" fill="#434A54" d="M1296.637,556.945c-0.299,0-0.595,0.014-0.891,0.023v53.486
						c0.296,0.012,0.592,0.023,0.891,0.023c14.781,0,26.765-11.984,26.765-26.768C1323.4,568.932,1311.418,556.945,1296.637,556.945
						"/>
				</g>
				<g>
					<defs>
						<rect id="SVGID_17_" x="1295.746" y="556.945" width="27.65" height="53.535"/>
					</defs>
					<clipPath id="SVGID_18_">
						<use xlink:href="#SVGID_17_"  overflow="visible"/>
					</clipPath>
					<path clip-path="url(#SVGID_18_)" fill="#434A54" d="M1296.785,567.238c-0.302,0-0.595,0.029-0.891,0.047v32.85
						c0.296,0.016,0.589,0.045,0.891,0.045c9.097,0,16.467-7.369,16.467-16.467S1305.882,567.238,1296.785,567.238"/>
				</g>
			</g>
		</g>
		<g opacity="0.32">
			<g>
				<g>
					<defs>
						<rect id="SVGID_19_" x="989.605" y="556.945" width="27.649" height="53.535"/>
					</defs>
					<clipPath id="SVGID_20_">
						<use xlink:href="#SVGID_19_"  overflow="visible"/>
					</clipPath>
					<path clip-path="url(#SVGID_20_)" fill="#434A54" d="M1016.367,610.479c0.299,0,0.594-0.012,0.89-0.021v-53.488
						c-0.296-0.01-0.591-0.021-0.89-0.021c-14.782,0-26.766,11.984-26.766,26.768
						C989.602,598.496,1001.585,610.479,1016.367,610.479"/>
				</g>
				<g>
					<defs>
						<rect id="SVGID_21_" x="989.605" y="556.945" width="27.649" height="53.535"/>
					</defs>
					<clipPath id="SVGID_22_">
						<use xlink:href="#SVGID_21_"  overflow="visible"/>
					</clipPath>
					<path clip-path="url(#SVGID_22_)" fill="#434A54" d="M1016.219,600.186c0.301,0,0.594-0.029,0.891-0.045v-32.852
						c-0.297-0.016-0.59-0.045-0.891-0.045c-9.098,0-16.468,7.371-16.468,16.467C999.751,592.809,1007.121,600.186,1016.219,600.186
						"/>
				</g>
			</g>
		</g>
		<g opacity="0.83">
			<g>
				<g>
					<defs>
						<rect id="SVGID_23_" x="1108.746" y="741.551" width="90" height="90.994"/>
					</defs>
					<clipPath id="SVGID_24_">
						<use xlink:href="#SVGID_23_"  overflow="visible"/>
					</clipPath>
					<path clip-path="url(#SVGID_24_)" fill="#434A54" d="M1157.928,749.08c-17.317,0-33.891-2.668-49.182-7.529v46.875
						c0,24.369,20.634,44.121,45,44.121s45-19.752,45-44.121v-44.467C1185.839,747.287,1172.133,749.08,1157.928,749.08"/>
				</g>
			</g>
		</g>
		<path fill="#434A54" d="M1199.338,782.119v6.307c0,24.369-20.633,44.121-45,44.121s-45-19.752-45-44.121v-4.191
			c-64.922,18.061-111.993,70.904-112.316,133.389h322.996C1319.683,852.484,1268.542,797.818,1199.338,782.119"/>
		<rect x="989.605" y="446.622" fill="none" width="333.791" height="471"/>
	</g>
	<g opacity="0.33">
		<path fill="#434A54" d="M1102.663,581.582c0,8.908-7.222,16.131-16.13,16.131c-8.907,0-16.126-7.223-16.126-16.131
			c0-8.906,7.219-16.129,16.126-16.129C1095.441,565.453,1102.663,572.676,1102.663,581.582"/>
		<path fill="#434A54" d="M1246.783,581.582c0,8.908-7.223,16.131-16.127,16.131c-8.906,0-16.129-7.223-16.129-16.131
			c0-8.906,7.223-16.129,16.129-16.129S1246.783,572.676,1246.783,581.582"/>
		<rect x="1070.406" y="565.453" fill="none" width="176.38" height="32.26"/>
	</g>
	<g opacity="0.35">
		<path fill="#434A54" d="M1159.229,704.127c-14.224,0-28.447-5.414-39.275-16.24c-3.78-3.779-3.78-9.906,0-13.686
			c3.771-3.779,9.9-3.777,13.682,0c14.121,14.113,37.082,14.111,51.19,0c3.778-3.779,9.901-3.779,13.682,0
			c3.78,3.777,3.78,9.904,0,13.684C1187.679,698.713,1173.454,704.127,1159.229,704.127"/>
		<rect x="1117.116" y="671.367" fill="none" width="84.229" height="32.76"/>
	</g>
	<g opacity="0.35">
		<g opacity="0.32">
			<g>
				<g>
					<defs>
						<rect id="SVGID_25_" x="153.746" y="472.622" width="278" height="277.203"/>
					</defs>
					<clipPath id="SVGID_26_">
						<use xlink:href="#SVGID_25_"  overflow="visible"/>
					</clipPath>
					<path clip-path="url(#SVGID_26_)" fill="#434A54" d="M153.746,472.622v160.425c0,64.494,62.233,116.777,139,116.777
						c76.77,0,139-52.283,139-116.777V472.622H153.746z"/>
				</g>
			</g>
		</g>
		<path fill="#434A54" d="M434.317,463.536c0,24.871-20.178,45.19-45.07,45.19c-19.787,0-36.606-12.697-42.638-30.443
			c-7.371,23.139-29.051,39.933-54.643,39.933c-24.462,0-45.38-15.298-53.594-36.896c-7.289,15.07-22.731,25.475-40.602,25.475
			c-24.873,0-45.051-20.446-45.051-45.32c0-5.106,0.865-8.4,2.41-14.853h276.013C433.184,453.073,434.317,457.649,434.317,463.536"
			/>
		<g opacity="0.32">
			<g>
				<g>
					<defs>
						<rect id="SVGID_27_" x="431.746" y="556.945" width="27.654" height="53.535"/>
					</defs>
					<clipPath id="SVGID_28_">
						<use xlink:href="#SVGID_27_"  overflow="visible"/>
					</clipPath>
					<path clip-path="url(#SVGID_28_)" fill="#434A54" d="M432.637,556.945c-0.299,0-0.594,0.014-0.89,0.023v53.486
						c0.296,0.012,0.591,0.023,0.89,0.023c14.782,0,26.765-11.984,26.765-26.768C459.4,568.932,447.419,556.945,432.637,556.945"/>
				</g>
				<g>
					<defs>
						<rect id="SVGID_29_" x="431.746" y="556.945" width="27.654" height="53.535"/>
					</defs>
					<clipPath id="SVGID_30_">
						<use xlink:href="#SVGID_29_"  overflow="visible"/>
					</clipPath>
					<path clip-path="url(#SVGID_30_)" fill="#434A54" d="M432.785,567.238c-0.301,0-0.594,0.029-0.891,0.047v32.85
						c0.297,0.016,0.59,0.045,0.891,0.045c9.097,0,16.467-7.369,16.467-16.467S441.882,567.238,432.785,567.238"/>
				</g>
			</g>
		</g>
		<g opacity="0.32">
			<g>
				<g>
					<defs>
						<rect id="SVGID_31_" x="125.604" y="556.945" width="27.654" height="53.535"/>
					</defs>
					<clipPath id="SVGID_32_">
						<use xlink:href="#SVGID_31_"  overflow="visible"/>
					</clipPath>
					<path clip-path="url(#SVGID_32_)" fill="#434A54" d="M152.367,610.479c0.299,0,0.594-0.012,0.89-0.021v-53.488
						c-0.296-0.01-0.591-0.021-0.89-0.021c-14.782,0-26.766,11.984-26.766,26.768C125.602,598.496,137.585,610.479,152.367,610.479"
						/>
				</g>
				<g>
					<defs>
						<rect id="SVGID_33_" x="125.604" y="556.945" width="27.654" height="53.535"/>
					</defs>
					<clipPath id="SVGID_34_">
						<use xlink:href="#SVGID_33_"  overflow="visible"/>
					</clipPath>
					<path clip-path="url(#SVGID_34_)" fill="#434A54" d="M152.219,600.186c0.301,0,0.594-0.029,0.89-0.045v-32.852
						c-0.296-0.016-0.589-0.045-0.89-0.045c-9.097,0-16.467,7.371-16.467,16.467C135.752,592.809,143.122,600.186,152.219,600.186"
						/>
				</g>
			</g>
		</g>
		<g opacity="0.83">
			<g>
				<g>
					<defs>
						<rect id="SVGID_35_" x="244.746" y="741.551" width="90" height="90.994"/>
					</defs>
					<clipPath id="SVGID_36_">
						<use xlink:href="#SVGID_35_"  overflow="visible"/>
					</clipPath>
					<path clip-path="url(#SVGID_36_)" fill="#434A54" d="M293.928,749.08c-17.316,0-33.891-2.668-49.182-7.529v46.875
						c0,24.369,20.634,44.121,45,44.121c24.367,0,45-19.752,45-44.121v-44.467C321.839,747.287,308.133,749.08,293.928,749.08"/>
				</g>
			</g>
		</g>
		<path fill="#434A54" d="M335.338,782.119v6.307c0,24.369-20.633,44.121-45,44.121c-24.366,0-45-19.752-45-44.121v-4.191
			c-64.922,18.061-111.992,70.904-112.315,133.389h322.995C455.684,852.484,404.542,797.818,335.338,782.119"/>
		<rect x="125.604" y="446.622" fill="none" width="333.798" height="471"/>
	</g>
	<g opacity="0.33">
		<path fill="#434A54" d="M238.663,581.582c0,8.908-7.223,16.131-16.13,16.131c-8.906,0-16.126-7.223-16.126-16.131
			c0-8.906,7.22-16.129,16.126-16.129C231.44,565.453,238.663,572.676,238.663,581.582"/>
		<path fill="#434A54" d="M382.784,581.582c0,8.908-7.224,16.131-16.127,16.131c-8.907,0-16.13-7.223-16.13-16.131
			c0-8.906,7.223-16.129,16.13-16.129C375.563,565.453,382.784,572.676,382.784,581.582"/>
		<rect x="206.407" y="565.453" fill="none" width="176.377" height="32.26"/>
	</g>
	<g opacity="0.35">
		<path fill="#434A54" d="M295.229,704.127c-14.225,0-28.448-5.414-39.276-16.24c-3.78-3.779-3.78-9.906,0-13.686
			c3.772-3.779,9.901-3.777,13.682,0c14.12,14.113,37.082,14.111,51.19,0c3.78-3.779,9.903-3.779,13.682,0
			c3.78,3.777,3.78,9.904,0,13.684C323.679,698.713,309.454,704.127,295.229,704.127"/>
		<rect x="253.118" y="671.367" fill="none" width="84.225" height="32.76"/>
	</g>
	<g opacity="0.35">
		<g opacity="0.32">
			<g>
				<g>
					<defs>
						<rect id="SVGID_37_" x="1488.746" y="472.622" width="278" height="277.203"/>
					</defs>
					<clipPath id="SVGID_38_">
						<use xlink:href="#SVGID_37_"  overflow="visible"/>
					</clipPath>
					<path clip-path="url(#SVGID_38_)" fill="#434A54" d="M1488.746,472.622v160.425c0,64.494,62.234,116.777,139,116.777
						c76.769,0,139-52.283,139-116.777V472.622H1488.746z"/>
				</g>
			</g>
		</g>
		<path fill="#434A54" d="M1769.317,463.536c0,24.871-20.179,45.19-45.07,45.19c-19.787,0-36.607-12.697-42.638-30.443
			c-7.37,23.139-29.051,39.933-54.644,39.933c-24.461,0-45.379-15.298-53.593-36.896c-7.289,15.07-22.732,25.475-40.601,25.475
			c-24.873,0-45.052-20.446-45.052-45.32c0-5.106,0.865-8.4,2.409-14.853h276.014
			C1768.183,453.073,1769.317,457.649,1769.317,463.536"/>
		<g opacity="0.32">
			<g>
				<g>
					<defs>
						<rect id="SVGID_39_" x="1766.746" y="556.945" width="27.65" height="53.535"/>
					</defs>
					<clipPath id="SVGID_40_">
						<use xlink:href="#SVGID_39_"  overflow="visible"/>
					</clipPath>
					<path clip-path="url(#SVGID_40_)" fill="#434A54" d="M1767.637,556.945c-0.299,0-0.595,0.014-0.891,0.023v53.486
						c0.296,0.012,0.592,0.023,0.891,0.023c14.781,0,26.765-11.984,26.765-26.768C1794.4,568.932,1782.418,556.945,1767.637,556.945
						"/>
				</g>
				<g>
					<defs>
						<rect id="SVGID_41_" x="1766.746" y="556.945" width="27.65" height="53.535"/>
					</defs>
					<clipPath id="SVGID_42_">
						<use xlink:href="#SVGID_41_"  overflow="visible"/>
					</clipPath>
					<path clip-path="url(#SVGID_42_)" fill="#434A54" d="M1767.785,567.238c-0.302,0-0.595,0.029-0.891,0.047v32.85
						c0.296,0.016,0.589,0.045,0.891,0.045c9.097,0,16.467-7.369,16.467-16.467S1776.882,567.238,1767.785,567.238"/>
				</g>
			</g>
		</g>
		<g opacity="0.32">
			<g>
				<g>
					<defs>
						<rect id="SVGID_43_" x="1460.605" y="556.945" width="27.649" height="53.535"/>
					</defs>
					<clipPath id="SVGID_44_">
						<use xlink:href="#SVGID_43_"  overflow="visible"/>
					</clipPath>
					<path clip-path="url(#SVGID_44_)" fill="#434A54" d="M1487.367,610.479c0.299,0,0.594-0.012,0.89-0.021v-53.488
						c-0.296-0.01-0.591-0.021-0.89-0.021c-14.782,0-26.766,11.984-26.766,26.768
						C1460.602,598.496,1472.585,610.479,1487.367,610.479"/>
				</g>
				<g>
					<defs>
						<rect id="SVGID_45_" x="1460.605" y="556.945" width="27.649" height="53.535"/>
					</defs>
					<clipPath id="SVGID_46_">
						<use xlink:href="#SVGID_45_"  overflow="visible"/>
					</clipPath>
					<path clip-path="url(#SVGID_46_)" fill="#434A54" d="M1487.219,600.186c0.301,0,0.594-0.029,0.891-0.045v-32.852
						c-0.297-0.016-0.59-0.045-0.891-0.045c-9.098,0-16.468,7.371-16.468,16.467
						C1470.751,592.809,1478.121,600.186,1487.219,600.186"/>
				</g>
			</g>
		</g>
		<g opacity="0.83">
			<g>
				<g>
					<defs>
						<rect id="SVGID_47_" x="1579.746" y="741.551" width="90" height="90.994"/>
					</defs>
					<clipPath id="SVGID_48_">
						<use xlink:href="#SVGID_47_"  overflow="visible"/>
					</clipPath>
					<path clip-path="url(#SVGID_48_)" fill="#434A54" d="M1628.928,749.08c-17.317,0-33.891-2.668-49.182-7.529v46.875
						c0,24.369,20.634,44.121,45,44.121s45-19.752,45-44.121v-44.467C1656.839,747.287,1643.133,749.08,1628.928,749.08"/>
				</g>
			</g>
		</g>
		<path fill="#434A54" d="M1670.338,782.119v6.307c0,24.369-20.633,44.121-45,44.121s-45-19.752-45-44.121v-4.191
			c-64.922,18.061-111.993,70.904-112.316,133.389h322.995C1790.683,852.484,1739.542,797.818,1670.338,782.119"/>
		<rect x="1460.605" y="446.622" fill="none" width="333.791" height="471"/>
	</g>
	<g opacity="0.33">
		<path fill="#434A54" d="M1573.663,581.582c0,8.908-7.222,16.131-16.13,16.131c-8.907,0-16.126-7.223-16.126-16.131
			c0-8.906,7.219-16.129,16.126-16.129C1566.441,565.453,1573.663,572.676,1573.663,581.582"/>
		<path fill="#434A54" d="M1717.783,581.582c0,8.908-7.223,16.131-16.127,16.131c-8.906,0-16.129-7.223-16.129-16.131
			c0-8.906,7.223-16.129,16.129-16.129S1717.783,572.676,1717.783,581.582"/>
		<rect x="1541.406" y="565.453" fill="none" width="176.38" height="32.26"/>
	</g>
	<g opacity="0.35">
		<path fill="#434A54" d="M1630.229,704.127c-14.224,0-28.447-5.414-39.275-16.24c-3.78-3.779-3.78-9.906,0-13.686
			c3.771-3.779,9.9-3.777,13.682,0c14.121,14.113,37.082,14.111,51.19,0c3.778-3.779,9.901-3.779,13.682,0
			c3.78,3.777,3.78,9.904,0,13.684C1658.679,698.713,1644.454,704.127,1630.229,704.127"/>
		<rect x="1588.116" y="671.367" fill="none" width="84.229" height="32.76"/>
	</g>
	<path fill="#DD4351" d="M1546.625,950.621c-0.409-79.773-74.763-144.318-166.434-144.318c-91.677,0-166.022,64.545-166.436,144.318
		H1546.625z"/>
	<path fill="#EF5562" d="M1378.746,805.135c-90,0.051-164.577,65.713-164.989,145.486h164.989V805.135z"/>
	<path fill="#A6735B" d="M1550.722,607.211c0,15.232-12.349,27.584-27.582,27.584c-15.232,0-27.585-12.352-27.585-27.584
		c0-15.234,12.353-27.586,27.585-27.586C1538.373,579.625,1550.722,591.977,1550.722,607.211"/>
	<path fill="#8E5F4A" d="M1540.11,607.211c0,9.375-7.598,16.971-16.972,16.971c-9.378,0-16.974-7.596-16.974-16.971
		s7.596-16.979,16.974-16.979C1532.514,590.232,1540.11,597.836,1540.11,607.211"/>
	<path fill="#A6735B" d="M1257.912,607.211c0,15.232-12.348,27.584-27.582,27.584c-15.232,0-27.585-12.352-27.585-27.584
		c0-15.234,12.353-27.586,27.585-27.586C1245.564,579.625,1257.912,591.977,1257.912,607.211"/>
	<path fill="#8E5F4A" d="M1247.301,607.211c0,9.375-7.599,16.971-16.97,16.971c-9.378,0-16.978-7.596-16.978-16.971
		s7.6-16.979,16.978-16.979C1239.702,590.232,1247.301,597.836,1247.301,607.211"/>
	<path fill="#8E5F4A" d="M1375.246,862.945c-25.111,0-46.5-20.354-46.5-45.469V573.469c0-25.115,21.389-45.469,46.5-45.469
		s46.5,20.354,46.5,45.469v244.008C1421.746,842.592,1400.357,862.945,1375.246,862.945"/>
	<path fill="#A6735B" d="M1235.746,491.622V657.35c0,66.467,63.887,120.348,143,120.348c79.116,0,143-53.881,143-120.348V491.622
		H1235.746z"/>
	<path fill="#8E5F4A" d="M1375.746,491.622v286.074c83,0,146-53.744,146-120.047V491.622H1375.746z"/>
	<path fill="#434A54" d="M1320.146,589.883c0,9.18-7.443,16.623-16.623,16.623c-9.181,0-16.619-7.443-16.619-16.623
		c0-9.182,7.438-16.623,16.619-16.623C1312.703,573.26,1320.146,580.703,1320.146,589.883"/>
	<path fill="#434A54" d="M1468.671,589.883c0,9.18-7.442,16.623-16.62,16.623c-9.179,0-16.621-7.443-16.621-16.623
		c0-9.182,7.442-16.623,16.621-16.623C1461.229,573.26,1468.671,580.703,1468.671,589.883"/>
	<path fill="#434A54" d="M1378.441,716.174c-14.659,0-29.318-5.58-40.479-16.738c-3.895-3.895-3.895-10.209,0-14.104
		c3.89-3.895,10.205-3.893,14.103,0c14.552,14.545,38.215,14.543,52.754,0c3.896-3.895,10.206-3.895,14.101,0
		c3.896,3.895,3.896,10.209,0,14.102C1407.759,710.594,1393.1,716.174,1378.441,716.174"/>
	<path fill="#3F1E16" d="M1232.639,487.082c0-25.631,20.794-46.625,46.447-46.625c20.393,0,37.727,13.059,43.941,31.347
		c7.596-23.847,29.938-41.167,56.313-41.167c25.208,0,46.766,15.76,55.23,38.018c7.511-15.533,23.426-26.258,41.841-26.258
		c25.635,0,46.43,21.181,46.43,46.814c0,5.261-0.894,8.411-2.483,15.411h-284.45
		C1233.808,497.622,1232.639,493.149,1232.639,487.082"/>
	<path fill="#EA5638" d="M1080.838,948.621c-0.4-78.559-73.287-141.471-163.148-141.471c-89.865,0-162.745,62.912-163.149,141.471
		H1080.838z"/>
	<path fill="#F26D4F" d="M916.746,806.055c-88,0.053-161.803,64.008-162.207,142.566h162.207V806.055z"/>
	<path fill="#FBD9C7" d="M1084.854,612.037c0,14.934-12.104,27.041-27.036,27.041c-14.934,0-27.041-12.107-27.041-27.041
		s12.107-27.039,27.041-27.039C1072.75,584.998,1084.854,597.104,1084.854,612.037"/>
	<path fill="#ECC8B8" d="M1074.452,612.037c0,9.189-7.446,16.635-16.636,16.635c-9.192,0-16.64-7.443-16.64-16.635
		c0-9.189,7.446-16.643,16.64-16.643C1067.006,595.395,1074.452,602.848,1074.452,612.037"/>
	<path fill="#FBD9C7" d="M797.824,612.037c0,14.934-12.104,27.041-27.037,27.041c-14.934,0-27.041-12.107-27.041-27.041
		s12.107-27.039,27.041-27.039C785.72,584.998,797.824,597.104,797.824,612.037"/>
	<path fill="#ECC8B8" d="M787.422,612.037c0,9.189-7.449,16.635-16.635,16.635c-9.193,0-16.643-7.443-16.643-16.635
		c0-9.189,7.448-16.643,16.643-16.643C779.973,595.395,787.422,602.848,787.422,612.037"/>
	<path fill="#ECC8B8" d="M912.746,862.727c-24.616,0-46-19.955-46-44.574V578.961c0-24.617,21.384-44.569,46-44.569
		s46,19.952,46,44.569v239.191C958.746,842.771,937.362,862.727,912.746,862.727"/>
	<path fill="#FBD9C7" d="M776.746,498.622v162.566c0,65.152,62.449,117.971,140,117.971c77.554,0,140-52.816,140-117.971V498.622
		H776.746z"/>
	<path fill="#ECC8B8" d="M912.746,498.622v280.537c82,0,144-52.686,144-117.678V498.622H912.746z"/>
	<path fill="#434A54" d="M858.829,595.053c0,8.998-7.297,16.295-16.296,16.295c-8.998,0-16.29-7.297-16.29-16.295
		c0-9,7.292-16.295,16.29-16.295C851.532,578.758,858.829,586.053,858.829,595.053"/>
	<path fill="#434A54" d="M1004.423,595.053c0,8.998-7.296,16.295-16.292,16.295c-8.998,0-16.294-7.297-16.294-16.295
		c0-9,7.296-16.295,16.294-16.295C997.127,578.758,1004.423,586.053,1004.423,595.053"/>
	<g opacity="0.5">
		<g>
			<g>
				<defs>
					<rect id="SVGID_49_" x="801.792" y="509.068" width="11.916" height="11.919"/>
				</defs>
				<clipPath id="SVGID_50_">
					<use xlink:href="#SVGID_49_"  overflow="visible"/>
				</clipPath>
				<path clip-path="url(#SVGID_50_)" fill="#434A54" d="M813.709,515.027c0,3.292-2.666,5.96-5.957,5.96
					c-3.29,0-5.959-2.668-5.959-5.96s2.669-5.96,5.959-5.96C811.043,509.067,813.709,511.735,813.709,515.027"/>
			</g>
		</g>
	</g>
	<g opacity="0.5">
		<g>
			<g>
				<defs>
					<rect id="SVGID_51_" x="781.5" y="522.1" width="11.917" height="11.921"/>
				</defs>
				<clipPath id="SVGID_52_">
					<use xlink:href="#SVGID_51_"  overflow="visible"/>
				</clipPath>
				<path clip-path="url(#SVGID_52_)" fill="#434A54" d="M793.417,528.06c0,3.292-2.666,5.96-5.957,5.96
					c-3.29,0-5.959-2.668-5.959-5.96s2.669-5.96,5.959-5.96C790.751,522.1,793.417,524.768,793.417,528.06"/>
			</g>
		</g>
	</g>
	<g opacity="0.5">
		<g>
			<g>
				<defs>
					<rect id="SVGID_53_" x="1019.355" y="515.583" width="11.921" height="11.92"/>
				</defs>
				<clipPath id="SVGID_54_">
					<use xlink:href="#SVGID_53_"  overflow="visible"/>
				</clipPath>
				<path clip-path="url(#SVGID_54_)" fill="#434A54" d="M1031.275,521.543c0,3.292-2.666,5.96-5.957,5.96
					c-3.29,0-5.959-2.668-5.959-5.96s2.669-5.96,5.959-5.96C1028.609,515.583,1031.275,518.251,1031.275,521.543"/>
			</g>
		</g>
	</g>
	<g opacity="0.5">
		<g>
			<g>
				<defs>
					<rect id="SVGID_55_" x="778.651" y="500.55" width="11.916" height="11.92"/>
				</defs>
				<clipPath id="SVGID_56_">
					<use xlink:href="#SVGID_55_"  overflow="visible"/>
				</clipPath>
				<path clip-path="url(#SVGID_56_)" fill="#434A54" d="M790.567,506.51c0,3.292-2.666,5.96-5.957,5.96
					c-3.29,0-5.959-2.668-5.959-5.96s2.669-5.96,5.959-5.96C787.901,500.55,790.567,503.218,790.567,506.51"/>
			</g>
		</g>
	</g>
	<g opacity="0.5">
		<g>
			<g>
				<defs>
					<rect id="SVGID_57_" x="1042.166" y="522.1" width="11.92" height="11.921"/>
				</defs>
				<clipPath id="SVGID_58_">
					<use xlink:href="#SVGID_57_"  overflow="visible"/>
				</clipPath>
				<path clip-path="url(#SVGID_58_)" fill="#434A54" d="M1054.084,528.06c0,3.292-2.666,5.96-5.957,5.96
					c-3.29,0-5.959-2.668-5.959-5.96s2.669-5.96,5.959-5.96C1051.418,522.1,1054.084,524.768,1054.084,528.06"/>
			</g>
		</g>
	</g>
	<g opacity="0.5">
		<g>
			<g>
				<defs>
					<rect id="SVGID_59_" x="1042.496" y="499.55" width="11.92" height="11.92"/>
				</defs>
				<clipPath id="SVGID_60_">
					<use xlink:href="#SVGID_59_"  overflow="visible"/>
				</clipPath>
				<path clip-path="url(#SVGID_60_)" fill="#434A54" d="M1054.417,505.51c0,3.292-2.666,5.96-5.957,5.96
					c-3.29,0-5.959-2.668-5.959-5.96s2.669-5.96,5.959-5.96C1051.751,499.55,1054.417,502.218,1054.417,505.51"/>
			</g>
		</g>
	</g>
	<g opacity="0.5">
		<g>
			<g>
				<defs>
					<rect id="SVGID_61_" x="792.621" y="542.621" width="87.976" height="21"/>
				</defs>
				<clipPath id="SVGID_62_">
					<use xlink:href="#SVGID_61_"  overflow="visible"/>
				</clipPath>
				<path clip-path="url(#SVGID_62_)" fill="#434A54" d="M880.597,553.121c0,5.4-4.377,10.5-9.774,10.5h-68.426
					c-5.396,0-9.773-5.1-9.773-10.5c0-5.398,4.377-10.5,9.773-10.5h68.426C876.22,542.621,880.597,547.721,880.597,553.121"/>
			</g>
		</g>
	</g>
	<g opacity="0.5">
		<g>
			<g>
				<defs>
					<rect id="SVGID_63_" x="945.766" y="542.621" width="87.972" height="21"/>
				</defs>
				<clipPath id="SVGID_64_">
					<use xlink:href="#SVGID_63_"  overflow="visible"/>
				</clipPath>
				<path clip-path="url(#SVGID_64_)" fill="#434A54" d="M1033.738,553.121c0,5.4-4.377,10.5-9.774,10.5h-68.425
					c-5.398,0-9.775-5.1-9.775-10.5c0-5.398,4.377-10.5,9.775-10.5h68.425C1029.361,542.621,1033.738,547.721,1033.738,553.121"/>
			</g>
		</g>
	</g>
	<path fill="#FFFFFF" d="M851.154,679.418c0,0-0.01,0.006,0.018,0.182c4.998,36.268,38.423,61.455,74.694,56.459
		c36.271-4.998,61.65-38.201,56.655-74.469c-0.025-0.174-0.051-0.264-0.051-0.264L851.154,679.418z"/>
	<path fill="#8A78B6" d="M626.426,950.621c-0.397-77.408-72.546-140.037-161.498-140.037c-88.955,0-161.098,62.629-161.497,140.037
		H626.426z"/>
	<path fill="#A28EC3" d="M463.746,809.449c-87,0.051-159.916,63.764-160.315,141.172h160.315V809.449z"/>
	<path fill="#FACFCD" d="M630.4,617.396c0,14.781-11.982,26.766-26.765,26.766c-14.781,0-26.767-11.982-26.767-26.766
		s11.984-26.768,26.767-26.768S630.4,602.613,630.4,617.396"/>
	<path fill="#F2BAB7" d="M620.104,617.396c0,9.096-7.369,16.467-16.467,16.467c-9.099,0-16.47-7.371-16.47-16.467
		s7.371-16.475,16.47-16.475C612.733,600.924,620.104,608.301,620.104,617.396"/>
	<path fill="#FACFCD" d="M346.276,617.396c0,14.781-11.981,26.766-26.765,26.766c-14.781,0-26.767-11.982-26.767-26.766
		s11.984-26.768,26.767-26.768C334.295,590.629,346.276,602.613,346.276,617.396"/>
	<path fill="#F2BAB7" d="M335.979,617.396c0,9.096-7.372,16.467-16.467,16.467c-9.1,0-16.473-7.371-16.473-16.467
		s7.373-16.475,16.473-16.475C328.605,600.924,335.979,608.301,335.979,617.396"/>
	<path fill="#F2BAB7" d="M460.746,865.547c-24.367,0-45-19.752-45-44.121V584.654c0-24.369,20.633-44.119,45-44.119
		s45,19.75,45,44.119v236.771C505.746,845.795,485.113,865.547,460.746,865.547"/>
	<path fill="#FACFCD" d="M324.746,505.622v160.427c0,64.492,62.234,116.775,139,116.775c76.77,0,139-52.283,139-116.775V505.622
		H324.746z"/>
	<path fill="#F2BAB7" d="M460.746,505.622v277.203c80,0,142-52.15,142-116.486V505.622H460.746z"/>
	<path fill="#434A54" d="M406.663,600.582c0,8.908-7.222,16.131-16.13,16.131c-8.906,0-16.126-7.223-16.126-16.131
		c0-8.906,7.22-16.129,16.126-16.129C399.441,584.453,406.663,591.676,406.663,600.582"/>
	<path fill="#434A54" d="M550.784,600.582c0,8.908-7.224,16.131-16.127,16.131c-8.907,0-16.13-7.223-16.13-16.131
		c0-8.906,7.223-16.129,16.13-16.129C543.563,584.453,550.784,591.676,550.784,600.582"/>
	<path fill="#434A54" d="M463.23,723.127c-14.226,0-28.449-5.414-39.277-16.24c-3.78-3.779-3.78-9.906,0-13.686
		c3.772-3.779,9.902-3.777,13.682,0c14.12,14.113,37.082,14.111,51.19,0c3.78-3.779,9.903-3.779,13.682,0
		c3.78,3.777,3.78,9.904,0,13.684C491.679,717.713,477.454,723.127,463.23,723.127"/>
	<path fill="#E46132" d="M604.317,509.536c0,24.871-20.178,45.191-45.07,45.191c-19.787,0-36.606-12.697-42.638-30.444
		c-7.37,23.137-29.051,39.934-54.644,39.934c-24.461,0-45.379-15.299-53.593-36.897c-7.289,15.071-22.731,25.475-40.602,25.475
		c-24.872,0-45.051-20.447-45.051-45.322c0-5.105,0.866-8.399,2.409-14.852h276.015
		C603.184,499.073,604.317,503.649,604.317,509.536"/>
</g>
<g>
	<path fill="#D8DCDE" d="M531.306,298.148c-21.802,0-36.803-15.301-36.803-36.002v-0.2c0-19.901,15.501-36.202,36.702-36.202
		c12.602,0,20.201,3.4,27.502,9.601l-9.7,11.7c-5.4-4.5-10.201-7.101-18.302-7.101c-11.2,0-20.101,9.901-20.101,21.802v0.2
		c0,12.801,8.8,22.201,21.201,22.201c5.601,0,10.601-1.4,14.501-4.2v-10.001h-15.501v-13.301h30.401v30.402
		C554.007,293.148,544.106,298.148,531.306,298.148z"/>
	<path fill="#D8DCDE" d="M576.003,296.948v-70.004h52.803v13.7h-37.502v14.201h33.002v13.701h-33.002v14.7h38.002v13.701H576.003z"
		/>
	<path fill="#D8DCDE" d="M674.705,241.144v55.804h-15.401v-55.804h-21.301v-14.2h58.003v14.2H674.705z"/>
	<path fill="#D8DCDE" d="M762.506,296.948v-45.703l-19.701,29.902h-0.4l-19.501-29.602v45.402h-15.101v-70.004h16.601l18.401,29.602
		l18.401-29.602h16.601v70.004H762.506z"/>
	<path fill="#D8DCDE" d="M828.604,298.148c-21.602,0-37.103-16.102-37.103-36.002v-0.2c0-19.901,15.701-36.202,37.302-36.202
		c21.602,0,37.103,16.101,37.103,36.002v0.2C865.906,281.847,850.205,298.148,828.604,298.148z M849.806,261.946
		c0-12.001-8.801-22.002-21.201-22.002c-12.401,0-21.002,9.801-21.002,21.802v0.2c0,12.001,8.801,22.001,21.201,22.001
		c12.401,0,21.002-9.801,21.002-21.801V261.946z"/>
	<path fill="#D8DCDE" d="M928.704,296.948l-33.902-44.503v44.503h-15.201v-70.004h14.201l32.802,43.103v-43.103h15.201v70.004
		H928.704z"/>
	<path fill="#D8DCDE" d="M958.601,296.948v-70.004h52.804v13.7h-37.502v14.201h33.001v13.701h-33.001v14.7h38.002v13.701H958.601z"
		/>
	<path fill="#D8DCDE" d="M1068.104,296.948l-15.001-22.401h-12.101v22.401h-15.401v-70.004h32.002
		c16.501,0,26.401,8.7,26.401,23.101v0.2c0,11.301-6.1,18.401-15.001,21.701l17.102,25.002H1068.104z M1068.403,250.845
		c0-6.601-4.601-10.001-12.101-10.001h-15.301v20.102h15.601c7.501,0,11.801-4,11.801-9.9V250.845z"/>
	<path fill="#D8DCDE" d="M1131.901,298.148c-21.601,0-37.102-16.102-37.102-36.002v-0.2c0-19.901,15.7-36.202,37.302-36.202
		s37.103,16.101,37.103,36.002v0.2C1169.204,281.847,1153.503,298.148,1131.901,298.148z M1153.103,261.946
		c0-12.001-8.8-22.002-21.201-22.002c-12.4,0-21.001,9.801-21.001,21.802v0.2c0,12.001,8.801,22.001,21.201,22.001
		s21.001-9.801,21.001-21.801V261.946z"/>
	<path fill="#D8DCDE" d="M1176.699,296.948v-16.001h16.201v16.001H1176.699z"/>
	<path fill="#D8DCDE" d="M1237.502,298.148c-21.602,0-37.102-16.102-37.102-36.002v-0.2c0-19.901,15.7-36.202,37.302-36.202
		s37.103,16.101,37.103,36.002v0.2C1274.805,281.847,1259.104,298.148,1237.502,298.148z M1258.703,261.946
		c0-12.001-8.8-22.002-21.201-22.002c-12.4,0-21.001,9.801-21.001,21.802v0.2c0,12.001,8.801,22.001,21.201,22.001
		s21.001-9.801,21.001-21.801V261.946z"/>
	<path fill="#D8DCDE" d="M1331.002,296.948l-15.001-22.401H1303.9v22.401h-15.401v-70.004h32.002c16.501,0,26.401,8.7,26.401,23.101
		v0.2c0,11.301-6.1,18.401-15.001,21.701l17.102,25.002H1331.002z M1331.302,250.845c0-6.601-4.601-10.001-12.101-10.001H1303.9
		v20.102h15.601c7.501,0,11.801-4,11.801-9.9V250.845z"/>
	<path fill="#D8DCDE" d="M1394.5,298.148c-21.802,0-36.802-15.301-36.802-36.002v-0.2c0-19.901,15.501-36.202,36.702-36.202
		c12.601,0,20.201,3.4,27.501,9.601l-9.7,11.7c-5.4-4.5-10.201-7.101-18.301-7.101c-11.201,0-20.102,9.901-20.102,21.802v0.2
		c0,12.801,8.801,22.201,21.201,22.201c5.601,0,10.601-1.4,14.501-4.2v-10.001H1394v-13.301h30.402v30.402
		C1417.201,293.148,1407.301,298.148,1394.5,298.148z"/>
</g>
<g>
	<circle opacity="0.9" fill="#4C4C4C" enable-background="new    " cx="960" cy="540" r="150.485"/>
	<g>
		<polygon fill="#FFFFFF" points="1037.836,540 923.676,617.838 923.676,541.417 923.676,462.163 		"/>
		<path fill="#FFFFFF" d="M923.676,623.026c-0.83,0-1.665-0.197-2.423-0.604c-1.702-0.896-2.766-2.662-2.766-4.587V462.163
			c0-1.925,1.063-3.69,2.766-4.588c1.701-0.902,3.757-0.778,5.351,0.301l114.16,77.837c1.41,0.965,2.264,2.568,2.264,4.286
			s-0.854,3.321-2.27,4.286l-114.16,77.837C925.721,622.721,924.698,623.026,923.676,623.026z M928.865,471.986V608.02l99.76-68.02
			L928.865,471.986z"/>
	</g>
</g>
</svg>
