<?xml version="1.0" encoding="utf-8"?>
<!-- Generator: Adobe Illustrator 16.0.3, SVG Export Plug-In . SVG Version: 6.00 Build 0)  -->
<!DOCTYPE svg PUBLIC "-//W3C//DTD SVG 1.1//EN" "http://www.w3.org/Graphics/SVG/1.1/DTD/svg11.dtd">
<svg version="1.1" id="Layer_1" xmlns="http://www.w3.org/2000/svg" xmlns:xlink="http://www.w3.org/1999/xlink" x="0px" y="0px"
	 width="284.5px" height="77.334px" viewBox="0 0 284.5 77.334" enable-background="new 0 0 284.5 77.334" xml:space="preserve">
<g>
	<g>
		<circle fill="#FFFFFF" cx="38.606" cy="38.667" r="36.919"/>
		<g>
			<path id="_149931032_2_" fill="#F26822" d="M38.605,1.765c-20.377,0-36.903,16.524-36.903,36.902
				c0,4.073,0.66,7.991,1.879,11.656h11.037V19.274l23.987,23.987l23.987-23.987v31.049h11.037c1.22-3.665,1.88-7.583,1.88-11.656
				C75.509,18.289,58.984,1.765,38.605,1.765L38.605,1.765z"/>
			<path id="_149931160_2_" fill="#4D4D4D" d="M33.09,48.776L22.622,38.308v19.537H18.62h-4.001H7.072
				C13.55,68.473,25.25,75.57,38.605,75.57s25.056-7.098,31.533-17.726h-7.547h-7.158h-0.845V38.308L44.12,48.776l-5.515,5.515
				L33.09,48.776L33.09,48.776z"/>
		</g>
	</g>
	<path fill="#4D4D4D" d="M278.111,30.236c-3.132-3.151-6.877-4.731-11.237-4.731c-2.874,0-5.562,0.723-8.049,2.166
		c-2.495,1.444-4.454,3.402-5.877,5.876c-1.423,2.473-2.137,5.183-2.137,8.127c0,4.397,1.529,8.192,4.59,11.389
		c3.059,3.202,6.898,4.796,11.515,4.796c4.411,0,8.165-1.551,11.26-4.668c3.095-3.109,4.639-6.919,4.639-11.416
		C282.814,37.242,281.249,33.396,278.111,30.236z M274.014,49.173c-1.951,2.009-4.317,3.01-7.099,3.01
		c-2.458,0-4.632-0.771-6.533-2.324c-2.445-1.979-3.666-4.674-3.666-8.084c0-3.053,0.972-5.575,2.916-7.556
		c1.937-1.987,4.331-2.974,7.184-2.974c2.817,0,5.212,1.016,7.177,3.045c1.974,2.03,2.96,4.512,2.96,7.449
		C276.953,44.684,275.974,47.157,274.014,49.173z"/>
	<path fill="#4D4D4D" d="M240.542,43.475c2.049-0.735,3.587-1.815,4.607-3.241c1.021-1.433,1.523-3.204,1.523-5.335
		c0-2.019-0.457-3.774-1.381-5.253c-0.923-1.478-2.146-2.536-3.661-3.174s-4.06-0.96-7.639-0.96h-11.329v32.34h6.153V44.158h5.37
		l7.279,13.693h6.73L240.542,43.475z M239.612,37.382c-0.743,0.518-1.094,0.773-3.06,0.773h-7.736v-6.618h7.496
		c1.503,0,1.769,0.112,2.385,0.345c0.614,0.225,1.103,0.601,1.47,1.118c0.368,0.518,0.548,1.133,0.548,1.838
		C240.714,36.023,240.347,36.872,239.612,37.382z"/>
	<polygon fill="#4D4D4D" points="195.081,25.505 216.048,25.505 216.048,31.53 201.197,31.53 201.197,38.148 216.048,38.148 
		216.048,44.069 201.197,44.069 201.197,51.797 216.048,51.797 216.048,57.846 195.081,57.846 195.081,25.505 	"/>
	<polygon fill="#4D4D4D" points="162.592,25.505 168.483,25.505 182.357,46.785 182.357,25.505 188.51,25.505 188.51,57.845 
		182.597,57.845 168.746,36.633 168.746,57.845 162.592,57.845 	"/>
	<path fill="#4D4D4D" d="M153.019,30.223c-3.122-3.143-6.856-4.718-11.204-4.718c-2.865,0-5.545,0.72-8.024,2.159
		c-2.488,1.439-4.44,3.393-5.859,5.858c-1.418,2.466-2.131,5.167-2.131,8.103c0,4.384,1.525,8.168,4.576,11.354
		c3.05,3.192,6.877,4.781,11.481,4.781c4.397,0,8.139-1.546,11.225-4.653c3.086-3.101,4.626-6.899,4.626-11.382
		C157.708,37.207,156.147,33.373,153.019,30.223z M148.935,49.102c-1.946,2.003-4.305,3-7.077,3c-2.452,0-4.618-0.769-6.515-2.315
		c-2.438-1.974-3.654-4.661-3.654-8.061c0-3.043,0.968-5.559,2.906-7.533c1.932-1.981,4.318-2.965,7.162-2.965
		c2.809,0,5.196,1.012,7.156,3.036c1.966,2.023,2.95,4.497,2.95,7.426C151.864,44.626,150.887,47.093,148.935,49.102z"/>
	<path id="_74749088_2_" fill="#4D4D4D" d="M90.994,25.504h6.025l7.473,22.557l7.587-22.557h5.935l5.449,32.341h-5.936
		l-3.475-20.425l-6.881,20.425h-5.426l-6.79-20.425l-3.542,20.425h-6.003L90.994,25.504L90.994,25.504z"/>
</g>
</svg>
