<?xml version="1.0" encoding="utf-8"?>
<!-- Generator: Adobe Illustrator 16.0.3, SVG Export Plug-In . SVG Version: 6.00 Build 0)  -->
<!DOCTYPE svg PUBLIC "-//W3C//DTD SVG 1.1//EN" "http://www.w3.org/Graphics/SVG/1.1/DTD/svg11.dtd">
<svg version="1.1" id="Layer_1" xmlns="http://www.w3.org/2000/svg" xmlns:xlink="http://www.w3.org/1999/xlink" x="0px" y="0px"
	 width="1920px" height="1080px" viewBox="0 0 1920 1080" enable-background="new 0 0 1920 1080" xml:space="preserve">
<rect fill="#9EDAE7" width="1920" height="1080"/>
<g>
	<g>
		<g>
			
				<rect x="429.68" y="249.432" transform="matrix(-0.8984 0.4392 -0.4392 -0.8984 1784.166 473.0915)" fill="#53A979" width="815.357" height="386.996"/>
		</g>
		<g>
			<path fill="#A8D4BD" d="M1157.648,446.706c0,0,0.125,0.02,0.104-0.027c-16.871-34.508-2.852-75.853,31.793-93.099
				l-65.626-134.227c-34.887,16.752-76.389,1.935-92.873-31.599L516.896,439.131c16.337,33.604,2.2,76.229-32.412,93.154
				c-0.154,0.073-0.742,0.063-0.742,0.063l65.625,134.227c0,0,0.464-0.239,0.616-0.313c34.66-16.95,76.504-2.783,93.447,31.877
				c0.025,0.044,0.073-0.055,0.073-0.055L1157.648,446.706z"/>
		</g>
		<g>
			<path fill="#4EB67F" d="M942.275,391.185c28.426,58.137,4.34,128.313-53.802,156.738
				c-58.135,28.424-128.309,4.334-156.733-53.802c-28.422-58.14-4.335-128.313,53.801-156.735
				C843.681,308.96,913.856,333.046,942.275,391.185"/>
		</g>
		<g>
			<path fill="#4EB67F" d="M679.653,520.288c14.03,28.695,2.141,63.332-26.555,77.362c-28.694,14.03-63.333,2.14-77.363-26.558
				c-14.026-28.694-2.142-63.33,26.555-77.36S665.624,491.592,679.653,520.288"/>
		</g>
		<g>
			<path fill="#4EB67F" d="M1094.016,316.561c14.03,28.695,2.143,63.336-26.554,77.363c-28.698,14.032-63.334,2.144-77.365-26.559
				c-14.027-28.69-2.14-63.33,26.559-77.359C1045.348,275.978,1079.988,287.867,1094.016,316.561"/>
		</g>
		<g>
			<path fill="#C6E4CF" d="M793.868,362.716c-44.308,23.346-61.309,78.208-37.96,122.514c4.667,8.859,10.589,16.618,17.439,23.192
				l23.996-12.646l-35.57-67.506l79.636,24.672l24.673-79.636l35.569,67.509l24-12.643c-1.548-9.366-4.599-18.642-9.267-27.5
				C893.039,356.365,838.175,339.367,793.868,362.716"/>
		</g>
		<g>
			<path fill="#C6E4CF" d="M835.734,471.251l-34.753-10.769l22.38,42.481l-8.701,4.581l-8.702,4.585l-16.407,8.646
				c26.261,15.687,59.831,17.717,88.872,2.415c29.036-15.301,46.345-44.141,48.253-74.668l-16.409,8.645l-15.561,8.204l-1.838,0.967
				l-22.383-42.481l-10.769,34.757l-5.671,18.309L835.734,471.251z"/>
		</g>
		<g>
			<path fill="#C6E4CF" d="M613.091,566.621l-4.184-2.873c-1.657-1.069-2.711-1.77-3.763-2.541l-0.054,0.027
				c-0.011,1.277-0.057,2.479-0.238,4.489l-0.272,4.967l-2.659,1.271l1.138-11.687l-9.502-6.337l2.684-1.283l4.376,3.07
				c1.227,0.849,2.163,1.512,3.1,2.24l0.081-0.038c-0.002-1.305,0.052-2.346,0.17-3.807l0.438-5.371l2.657-1.272l-1.276,11.329
				l9.985,6.527L613.091,566.621z"/>
			<path fill="#C6E4CF" d="M629.807,548.949c-1.33-2.437-2.927-5.364-3.966-7.611l-0.081,0.039c0.394,2.394,0.716,4.983,0.996,7.887
				l0.997,10.209l-1.754,0.841l-6.981-7.148c-2.059-2.12-3.887-4.09-5.41-5.976l-0.054,0.025c1.02,2.259,2.32,5.326,3.448,8.091
				l3.196,7.91l-2.202,1.057l-7.328-18.519l2.95-1.41l7.205,7.205c1.8,1.848,3.355,3.523,4.696,5.17l0.08-0.039
				c-0.412-2.026-0.716-4.297-0.998-6.938l-0.957-10.196l2.949-1.41l9.694,17.386l-2.259,1.084L629.807,548.949z"/>
			<path fill="#C6E4CF" d="M631.398,536.131c1.057-0.802,2.668-1.735,4.265-2.499c2.47-1.185,4.284-1.496,5.882-1.02
				c1.287,0.362,2.376,1.349,3.039,2.728c1.135,2.369,0.395,4.649-1.186,6.189l0.036,0.081c1.613-0.183,3.045,0.696,4.361,2.357
				c1.78,2.217,3.035,3.741,3.739,4.256l-2.397,1.145c-0.533-0.365-1.668-1.716-3.245-3.709c-1.713-2.214-3.115-2.689-5.255-1.764
				l-2.18,1.04l3.716,7.765l-2.314,1.107L631.398,536.131z M637.617,543.185l2.366-1.134c2.472-1.185,3.391-3.287,2.412-5.337
				c-1.107-2.312-3.265-2.522-5.724-1.378c-1.116,0.535-1.863,1.024-2.185,1.309L637.617,543.185z"/>
		</g>
		<g>
			<path fill="#C6E4CF" d="M1030.913,363.442l-4.184-2.868c-1.656-1.071-2.709-1.774-3.766-2.543l-0.055,0.025
				c-0.008,1.279-0.056,2.479-0.234,4.493l-0.273,4.966l-2.658,1.272l1.139-11.688l-9.502-6.335l2.688-1.286l4.379,3.07
				c1.222,0.849,2.159,1.512,3.096,2.242l0.08-0.038c-0.003-1.306,0.055-2.345,0.174-3.807l0.435-5.371l2.659-1.275l-1.277,11.33
				l9.987,6.528L1030.913,363.442z"/>
			<path fill="#C6E4CF" d="M1047.627,345.771c-1.33-2.433-2.927-5.361-3.97-7.606l-0.082,0.036c0.397,2.392,0.72,4.983,1.002,7.887
				l0.995,10.211l-1.754,0.837l-6.984-7.147c-2.06-2.119-3.887-4.087-5.407-5.974l-0.052,0.027c1.017,2.259,2.318,5.327,3.445,8.088
				l3.199,7.913l-2.208,1.056l-7.324-18.518l2.952-1.411l7.202,7.205c1.803,1.849,3.354,3.525,4.695,5.169l0.081-0.038
				c-0.414-2.025-0.717-4.298-0.998-6.938l-0.959-10.196l2.952-1.41l9.692,17.387l-2.261,1.083L1047.627,345.771z"/>
			<path fill="#C6E4CF" d="M1049.219,332.952c1.055-0.8,2.667-1.736,4.262-2.497c2.473-1.184,4.284-1.495,5.886-1.02
				c1.286,0.365,2.376,1.348,3.036,2.728c1.134,2.366,0.396,4.649-1.189,6.19l0.039,0.08c1.613-0.184,3.048,0.698,4.363,2.356
				c1.781,2.221,3.034,3.742,3.737,4.259l-2.394,1.144c-0.535-0.363-1.67-1.716-3.245-3.709c-1.716-2.219-3.117-2.689-5.257-1.766
				l-2.179,1.045l3.715,7.764l-2.315,1.105L1049.219,332.952z M1055.439,340.008l2.366-1.132c2.471-1.184,3.392-3.291,2.411-5.338
				c-1.106-2.313-3.267-2.522-5.725-1.379c-1.116,0.537-1.864,1.024-2.184,1.307L1055.439,340.008z"/>
		</g>
	</g>
	<g>
		<g>
			
				<rect x="674.964" y="443.572" transform="matrix(-0.8984 0.4392 -0.4392 -0.8984 2335.0776 733.9154)" fill="#53A979" width="815.357" height="386.994"/>
		</g>
		<g>
			<path fill="#A8D4BD" d="M1402.933,640.832c0,0,0.126,0.021,0.104-0.025c-16.871-34.509-2.852-75.854,31.793-93.099
				l-65.625-134.229c-34.887,16.753-76.389,1.937-92.875-31.599L762.18,633.257c16.338,33.605,2.201,76.231-32.413,93.155
				c-0.152,0.073-0.742,0.063-0.742,0.063l65.627,134.226c0,0,0.464-0.239,0.616-0.313c34.661-16.951,76.504-2.784,93.447,31.877
				c0.025,0.043,0.073-0.055,0.073-0.055L1402.933,640.832z"/>
		</g>
		<g>
			<path fill="#4EB67F" d="M1187.561,585.311c28.426,58.139,4.339,128.313-53.802,156.739
				c-58.135,28.425-128.309,4.333-156.733-53.801c-28.423-58.142-4.336-128.315,53.801-156.735
				C1088.966,503.087,1159.141,527.173,1187.561,585.311"/>
		</g>
		<g>
			<path fill="#4EB67F" d="M924.937,714.414c14.031,28.696,2.142,63.333-26.555,77.365c-28.694,14.029-63.333,2.138-77.363-26.56
				c-14.027-28.694-2.141-63.33,26.556-77.359C876.271,673.829,910.908,685.72,924.937,714.414"/>
		</g>
		<g>
			<path fill="#4EB67F" d="M1339.3,510.689c14.03,28.692,2.143,63.333-26.554,77.361c-28.698,14.033-63.334,2.144-77.364-26.56
				c-14.028-28.688-2.141-63.329,26.558-77.358C1290.634,470.104,1325.271,481.995,1339.3,510.689"/>
		</g>
		<g>
			<path fill="#C6E4CF" d="M1039.15,556.843c-44.306,23.346-61.308,78.209-37.959,122.514c4.667,8.858,10.59,16.617,17.439,23.192
				l23.996-12.646l-35.572-67.508l79.638,24.674l24.673-79.637l35.571,67.508l23.999-12.642c-1.55-9.365-4.6-18.641-9.268-27.5
				C1138.323,550.491,1083.46,533.494,1039.15,556.843"/>
		</g>
		<g>
			<path fill="#C6E4CF" d="M1081.02,665.378l-34.754-10.769l22.379,42.481l-8.7,4.581l-8.702,4.586l-16.406,8.646
				c26.261,15.687,59.83,17.715,88.872,2.416c29.036-15.302,46.345-44.142,48.253-74.67l-16.409,8.646l-15.563,8.203l-1.837,0.969
				l-22.383-42.481L1105,652.744l-5.671,18.307L1081.02,665.378z"/>
		</g>
		<g>
			<path fill="#C6E4CF" d="M858.375,760.749l-4.184-2.874c-1.656-1.07-2.71-1.771-3.762-2.54l-0.054,0.026
				c-0.01,1.278-0.058,2.478-0.237,4.489l-0.272,4.968l-2.659,1.271l1.139-11.688l-9.502-6.336l2.683-1.283l4.377,3.068
				c1.227,0.85,2.162,1.515,3.1,2.242l0.081-0.04c-0.002-1.305,0.052-2.344,0.17-3.805l0.438-5.372l2.657-1.273l-1.276,11.329
				l9.985,6.527L858.375,760.749z"/>
			<path fill="#C6E4CF" d="M875.091,743.076c-1.33-2.436-2.927-5.363-3.966-7.61l-0.081,0.037c0.394,2.394,0.716,4.983,0.996,7.889
				l0.997,10.209l-1.754,0.84l-6.982-7.148c-2.058-2.12-3.885-4.091-5.409-5.977l-0.053,0.026c1.018,2.26,2.32,5.325,3.446,8.092
				l3.198,7.91l-2.202,1.056l-7.328-18.519l2.948-1.41l7.205,7.205c1.8,1.847,3.357,3.523,4.698,5.169l0.079-0.037
				c-0.412-2.026-0.716-4.298-0.998-6.939l-0.957-10.194l2.948-1.413l9.696,17.388l-2.259,1.082L875.091,743.076z"/>
			<path fill="#C6E4CF" d="M876.683,730.257c1.056-0.802,2.667-1.735,4.264-2.497c2.471-1.186,4.284-1.495,5.882-1.021
				c1.288,0.363,2.376,1.348,3.039,2.727c1.133,2.369,0.394,4.65-1.186,6.19l0.035,0.08c1.614-0.181,3.046,0.697,4.362,2.357
				c1.78,2.218,3.036,3.742,3.738,4.256l-2.396,1.145c-0.533-0.364-1.668-1.716-3.245-3.707c-1.714-2.214-3.115-2.691-5.255-1.765
				l-2.18,1.041l3.716,7.764l-2.314,1.107L876.683,730.257z M882.9,737.311l2.368-1.132c2.472-1.186,3.39-3.287,2.412-5.338
				c-1.107-2.312-3.265-2.522-5.725-1.378c-1.116,0.536-1.863,1.025-2.186,1.309L882.9,737.311z"/>
		</g>
		<g>
			<path fill="#C6E4CF" d="M1276.197,557.57l-4.184-2.868c-1.656-1.071-2.709-1.775-3.766-2.545l-0.055,0.026
				c-0.007,1.278-0.056,2.478-0.234,4.491l-0.273,4.966l-2.657,1.273l1.14-11.689l-9.504-6.336l2.688-1.283l4.378,3.068
				c1.222,0.85,2.159,1.512,3.097,2.242l0.079-0.036c-0.002-1.306,0.056-2.348,0.174-3.809l0.435-5.371l2.659-1.274l-1.277,11.329
				l9.987,6.531L1276.197,557.57z"/>
			<path fill="#C6E4CF" d="M1292.912,539.897c-1.33-2.434-2.927-5.36-3.971-7.607l-0.08,0.037c0.396,2.391,0.72,4.983,1.001,7.888
				l0.995,10.209l-1.755,0.837l-6.982-7.146c-2.06-2.12-3.887-4.087-5.409-5.974l-0.052,0.025c1.018,2.259,2.32,5.328,3.447,8.089
				l3.199,7.914l-2.209,1.054l-7.324-18.516l2.952-1.413l7.203,7.205c1.803,1.85,3.354,3.526,4.695,5.17l0.08-0.038
				c-0.413-2.025-0.716-4.297-0.998-6.939l-0.958-10.194l2.95-1.41l9.693,17.385l-2.261,1.084L1292.912,539.897z"/>
			<path fill="#C6E4CF" d="M1294.505,527.078c1.054-0.8,2.666-1.735,4.262-2.495c2.473-1.185,4.284-1.495,5.886-1.021
				c1.285,0.365,2.376,1.349,3.035,2.728c1.135,2.366,0.396,4.65-1.188,6.189l0.038,0.081c1.614-0.183,3.048,0.7,4.364,2.356
				c1.781,2.222,3.034,3.744,3.736,4.258l-2.394,1.145c-0.535-0.362-1.67-1.716-3.245-3.709c-1.716-2.218-3.117-2.689-5.256-1.766
				l-2.179,1.044l3.714,7.764l-2.314,1.107L1294.505,527.078z M1300.724,534.135l2.366-1.133c2.471-1.182,3.392-3.289,2.411-5.338
				c-1.106-2.313-3.267-2.522-5.725-1.378c-1.115,0.536-1.864,1.023-2.184,1.306L1300.724,534.135z"/>
		</g>
	</g>
</g>
<g>
	<circle opacity="0.9" fill="#4C4C4C" cx="960" cy="540" r="150.485"/>
	<g>
		<polygon fill="#FFFFFF" points="1037.836,540 923.676,617.838 923.676,541.417 923.676,462.163 		"/>
		<path fill="#FFFFFF" d="M923.676,623.026c-0.83,0-1.665-0.197-2.423-0.603c-1.702-0.896-2.766-2.662-2.766-4.587V462.163
			c0-1.925,1.063-3.69,2.766-4.588c1.701-0.902,3.757-0.778,5.351,0.301l114.16,77.837c1.41,0.965,2.263,2.568,2.263,4.286
			s-0.853,3.321-2.269,4.286l-114.16,77.837C925.721,622.721,924.698,623.026,923.676,623.026z M928.865,471.986V608.02l99.76-68.02
			L928.865,471.986z"/>
	</g>
</g>
</svg>
