<?xml version="1.0" encoding="utf-8"?>
<!-- Generator: Adobe Illustrator 16.0.0, SVG Export Plug-In . SVG Version: 6.00 Build 0)  -->
<!DOCTYPE svg PUBLIC "-//W3C//DTD SVG 1.1//EN" "http://www.w3.org/Graphics/SVG/1.1/DTD/svg11.dtd">
<svg version="1.1" id="Layer_1" xmlns="http://www.w3.org/2000/svg" xmlns:xlink="http://www.w3.org/1999/xlink" x="0px" y="0px"
	 width="500px" height="500px" viewBox="0 0 500 500" enable-background="new 0 0 500 500" xml:space="preserve">
<g>
	<path fill="#F27330" d="M398.408,499.908c0.279-3.402,0.426-6.836,0.426-10.303c0-75.363-67.616-136.459-151.026-136.459
		c-83.409,0-151.026,61.096-151.026,136.459c0,3.467,0.146,6.9,0.427,10.303H398.408z"/>
	<path fill="#F16369" d="M139.896,184.054c0,4.537-3.796,8.215-8.478,8.215h-23.313c-4.679,0-8.475-3.678-8.475-8.215V40.976
		c0-4.536,3.796-8.215,8.475-8.215h23.313c4.682,0,8.478,3.679,8.478,8.215V184.054z"/>
	<path fill="#F16369" d="M402.412,184.739c0,4.535-3.796,8.215-8.475,8.215h-23.314c-4.679,0-8.474-3.681-8.474-8.215V41.664
		c0-4.536,3.795-8.217,8.474-8.217h23.314c4.679,0,8.475,3.681,8.475,8.217V184.739z"/>
	<path fill="#EEB9B9" d="M249.171,432.504c-29.019,0-52.544-23.523-52.544-52.545V201.312c0-29.02,23.525-52.542,52.544-52.542
		c29.018,0,52.543,23.523,52.543,52.542v178.647C301.714,408.98,278.188,432.504,249.171,432.504"/>
	<path fill="#FCD7D7" d="M412.271,172.618c0,11.828-9.588,21.414-21.415,21.414c-11.826,0-21.415-9.586-21.415-21.414
		c0-11.827,9.589-21.413,21.415-21.413C402.683,151.205,412.271,160.791,412.271,172.618"/>
	<path fill="#EEB9B9" d="M403.159,172.618c0,6.795-5.507,12.304-12.304,12.304c-6.796,0-12.303-5.509-12.303-12.304
		c0-6.793,5.507-12.303,12.303-12.303C397.652,160.315,403.159,165.825,403.159,172.618"/>
	<path fill="#FCD7D7" d="M130.559,171.949c0,11.828-9.587,21.415-21.413,21.415c-11.827,0-21.416-9.587-21.416-21.415
		c0-11.826,9.589-21.415,21.416-21.415C120.972,150.535,130.559,160.124,130.559,171.949"/>
	<path fill="#EEB9B9" d="M121.448,171.949c0,6.795-5.508,12.305-12.303,12.305c-6.796,0-12.304-5.51-12.304-12.305
		c0-6.794,5.508-12.303,12.304-12.303C115.94,159.646,121.448,165.155,121.448,171.949"/>
	<path fill="#FCD7D7" d="M112.05,44.452v163.395c0,76.625,62.113,138.735,138.733,138.735s138.737-62.109,138.737-138.735V44.452
		H112.05z"/>
	<rect x="235.823" y="168.847" fill="#EEB9B9" width="23.968" height="46.6"/>
	<path fill="#F16369" d="M193.015,48.585c0,25.787-20.905,46.692-46.692,46.692S99.63,74.373,99.63,48.585
		c0-25.788,20.905-46.693,46.692-46.693S193.015,22.797,193.015,48.585"/>
	<path fill="#F16369" d="M255.246,46.784c0,25.788-20.905,46.692-46.692,46.692c-25.788,0-46.692-20.904-46.692-46.692
		c0-25.788,20.904-46.692,46.692-46.692C234.341,0.091,255.246,20.996,255.246,46.784"/>
	<path fill="#F16369" d="M329.209,46.784c0,25.788-20.904,46.692-46.691,46.692c-25.789,0-46.693-20.904-46.693-46.692
		c0-25.788,20.904-46.692,46.693-46.692C308.305,0.091,329.209,20.996,329.209,46.784"/>
	<path fill="#F16369" d="M402.412,46.784c0,25.339-20.541,45.881-45.882,45.881c-25.336,0-45.878-20.542-45.878-45.881
		c0-25.34,20.542-45.881,45.878-45.881C381.871,0.902,402.412,21.444,402.412,46.784"/>
	<path fill="#232323" d="M247.726,270.799c-0.967,0-1.938-0.016-2.916-0.045c-3.217-0.092-5.75-2.775-5.656-5.994
		s2.812-5.703,5.996-5.656c35.186,1.045,64.385-19.747,64.678-19.956c2.606-1.881,6.251-1.299,8.136,1.308
		c1.885,2.608,1.307,6.245-1.298,8.133C315.386,249.517,285.6,270.799,247.726,270.799"/>
	<rect x="99.461" y="146.003" fill="#4D4C4D" width="25.176" height="5.53"/>
	<rect x="369.073" y="146.003" fill="#4D4C4D" width="34.085" height="5.53"/>
	<path fill="#4D4C4D" d="M112.931,138.749c8.693,25.101,32.524,43.131,60.582,43.131s51.891-18.03,60.585-43.131H112.931z"/>
	<path fill="#4D4C4D" d="M255.863,138.749c8.693,25.101,32.523,43.131,60.581,43.131c28.059,0,51.892-18.03,60.586-43.131H255.863z"
		/>
	<rect x="223.809" y="138.749" fill="#4D4C4D" width="43.287" height="5.531"/>
	
		<line fill="none" stroke="#F0F2F4" stroke-width="3" stroke-miterlimit="10" x1="156.613" y1="144.844" x2="143.721" y2="157.736"/>
	
		<line fill="none" stroke="#F0F2F4" stroke-width="3" stroke-miterlimit="10" x1="183.804" y1="144.844" x2="159.149" y2="169.499"/>
	
		<line fill="none" stroke="#F0F2F4" stroke-width="3" stroke-miterlimit="10" x1="203.306" y1="149.334" x2="183.965" y2="168.675"/>
	<line fill="none" stroke="#F0F2F4" stroke-width="3" stroke-miterlimit="10" x1="299.547" y1="146.678" x2="286.654" y2="159.57"/>
	
		<line fill="none" stroke="#F0F2F4" stroke-width="3" stroke-miterlimit="10" x1="326.736" y1="146.678" x2="302.082" y2="171.333"/>
	
		<line fill="none" stroke="#F0F2F4" stroke-width="3" stroke-miterlimit="10" x1="346.237" y1="151.168" x2="326.897" y2="170.509"/>
</g>
</svg>
