<?xml version="1.0" encoding="utf-8"?>
<!-- Generator: Adobe Illustrator 16.0.0, SVG Export Plug-In . SVG Version: 6.00 Build 0)  -->
<!DOCTYPE svg PUBLIC "-//W3C//DTD SVG 1.1//EN" "http://www.w3.org/Graphics/SVG/1.1/DTD/svg11.dtd">
<svg version="1.1" id="Layer_1" xmlns="http://www.w3.org/2000/svg" xmlns:xlink="http://www.w3.org/1999/xlink" x="0px" y="0px"
	 width="500px" height="500px" viewBox="0 0 500 500" enable-background="new 0 0 500 500" xml:space="preserve">
<g>
	
		<rect x="168.045" y="226.929" transform="matrix(0.8248 0.5654 -0.5654 0.8248 195.2905 -55.2365)" fill="#4D4C4D" width="37.473" height="121.193"/>
	<path fill="#23323F" d="M60.008,496.512l-22.434-15.379c-8.391-5.753-10.551-17.327-4.798-25.72l85.633-124.919
		c5.754-8.395,17.327-10.554,25.721-4.8l22.432,15.377c8.393,5.753,10.553,17.328,4.799,25.721L85.728,491.711
		C79.974,500.105,68.4,502.265,60.008,496.512"/>
	
		<rect x="93.531" y="359.353" transform="matrix(0.8248 0.5654 -0.5654 0.8248 234.1604 -5.6191)" fill="#F6CC44" width="65.234" height="31.415"/>
	<path fill="#23323F" d="M240.296,290.931c-78.124-24.096-122.08-107.259-97.984-185.382C166.409,27.423,249.57-16.53,327.692,7.565
		c78.125,24.095,122.081,107.258,97.983,185.381C401.581,271.071,318.419,315.024,240.296,290.931"/>
	<path fill="#77C8C3" d="M394.465,183.319c-18.818,61.01-83.532,95.215-144.542,76.399c-61.011-18.819-95.215-83.533-76.397-144.544
		c18.817-61.011,83.531-95.215,144.542-76.397C379.078,57.594,413.282,122.31,394.465,183.319"/>
	<path fill="#AFDFE3" d="M199.966,155.729c-5.052-1.557-8.833-6.134-9.119-11.718c-0.045-0.87-0.969-21.55,9.938-43.615
		c10.101-20.432,32.4-46.13,81.289-52.535c7.092-0.928,13.598,4.068,14.528,11.164s-4.069,13.6-11.164,14.53
		c-30.141,3.948-50.808,16.841-61.426,38.323c-7.818,15.818-7.296,30.659-7.289,30.804c0.367,7.145-5.128,13.235-12.274,13.604
		C202.89,156.364,201.377,156.163,199.966,155.729"/>
	
		<rect x="66.039" y="140.093" transform="matrix(0.8101 0.5863 -0.5863 0.8101 141.4586 -138.226)" fill="#F6CC44" width="436.091" height="18.28"/>
	
		<rect x="67.328" y="140.399" transform="matrix(-0.8101 0.5863 -0.5863 -0.8101 604.2245 103.3498)" fill="#F6CC44" width="436.091" height="18.28"/>
</g>
</svg>
