<?xml version="1.0" encoding="utf-8"?>
<!-- Generator: Adobe Illustrator 16.0.3, SVG Export Plug-In . SVG Version: 6.00 Build 0)  -->
<!DOCTYPE svg PUBLIC "-//W3C//DTD SVG 1.1//EN" "http://www.w3.org/Graphics/SVG/1.1/DTD/svg11.dtd">
<svg version="1.1" id="Layer_1" xmlns="http://www.w3.org/2000/svg" xmlns:xlink="http://www.w3.org/1999/xlink" x="0px" y="0px"
	 width="503.158px" height="398.341px" viewBox="0 0 503.158 398.341" enable-background="new 0 0 503.158 398.341"
	 xml:space="preserve">
<g>
	<circle fill="#D7D7D7" cx="38.118" cy="143.472" r="4.3"/>
	<circle fill="#D7D7D7" cx="17.36" cy="139.173" r="4.3"/>
	<g>
		<circle fill="#D7D7D7" cx="38.118" cy="202.626" r="4.3"/>
	</g>
	<circle fill="#D7D7D7" cx="17.038" cy="17.583" r="4.299"/>
	<g>
		<circle fill="#D7D7D7" cx="130.833" cy="15.254" r="4.299"/>
	</g>
	<g>
		<circle fill="#D7D7D7" cx="193.553" cy="17.583" r="4.299"/>
	</g>
	<g>
		<circle fill="#D7D7D7" cx="133.717" cy="202.626" r="4.299"/>
	</g>
	<g>
		<circle fill="#D7D7D7" cx="138.017" cy="239.754" r="4.3"/>
	</g>
	<g>
		<g>
			<circle fill="#D7D7D7" cx="235.084" cy="239.754" r="4.299"/>
		</g>
	</g>
	<g>
		<circle fill="#D7D7D7" cx="166.808" cy="272.319" r="4.3"/>
	</g>
	<g>
		<g>
			<circle fill="#D7D7D7" cx="235.084" cy="298.435" r="4.299"/>
		</g>
	</g>
	<g>
		<g>
			<circle fill="#D7D7D7" cx="330.737" cy="298.435" r="4.299"/>
		</g>
	</g>
	<g>
		<circle fill="#D7D7D7" cx="328.849" cy="182.173" r="4.299"/>
	</g>
	<g>
		<g>
			<circle fill="#D7D7D7" cx="328.849" cy="134.033" r="4.299"/>
		</g>
	</g>
	<g>
		<circle fill="#D7D7D7" cx="256.797" cy="15.254" r="4.299"/>
	</g>
	<circle fill="#D7D7D7" cx="304.623" cy="15.254" r="4.3"/>
	<g>
		<circle fill="#D7D7D7" cx="344.32" cy="381.028" r="4.3"/>
	</g>
	<g>
		<circle fill="#D7D7D7" cx="344.319" cy="332.259" r="3.277"/>
	</g>
	<g>
		<g>
			<circle fill="#D7D7D7" cx="364.354" cy="257.53" r="3.277"/>
		</g>
	</g>
	<g>
		<circle fill="#D7D7D7" cx="166.807" cy="224.649" r="3.277"/>
	</g>
	<circle fill="#D7D7D7" cx="167.829" cy="161.878" r="3.277"/>
	<g>
		<circle fill="#D7D7D7" cx="133.717" cy="161.878" r="2.318"/>
	</g>
	<g>
		<g>
			<circle fill="#D7D7D7" cx="330.737" cy="257.53" r="2.318"/>
		</g>
	</g>
	<g>
		<circle fill="#D7D7D7" cx="130.833" cy="71.733" r="5.715"/>
	</g>
	<circle fill="#D7D7D7" cx="256.797" cy="71.733" r="5.715"/>
	<circle fill="#D7D7D7" cx="109.543" cy="90.611" r="5.715"/>
	<g>
		<g>
			<circle fill="#D7D7D7" cx="193.553" cy="90.611" r="5.715"/>
		</g>
	</g>
	<circle fill="#D7D7D7" cx="109.543" cy="224.649" r="5.715"/>
	<g>
		<g>
			<circle fill="#D7D7D7" cx="271.899" cy="134.033" r="5.715"/>
		</g>
	</g>
	<g>
		<circle fill="#D7D7D7" cx="370.069" cy="62.293" r="5.715"/>
	</g>
	<g>
		<g>
			<circle fill="#D7D7D7" cx="287.002" cy="199.164" r="5.715"/>
		</g>
	</g>
	<g>
		<circle fill="#D7D7D7" cx="370.069" cy="199.164" r="5.715"/>
	</g>
	<circle fill="#D7D7D7" cx="287.002" cy="332.259" r="5.715"/>
	<g>
		<rect x="15.622" fill="#D7D7D7" width="2.832" height="139.748"/>
	</g>
	<g>
		<g>
			<circle fill="#D7D7D7" cx="118.877" cy="49.302" r="1.639"/>
		</g>
		<g>
			<circle fill="#D7D7D7" cx="104.403" cy="49.302" r="1.639"/>
		</g>
		<g>
			<circle fill="#D7D7D7" cx="104.403" cy="66.765" r="1.639"/>
		</g>
		<g>
			<circle fill="#D7D7D7" cx="63.656" cy="66.765" r="1.64"/>
		</g>
		<g>
			<circle fill="#D7D7D7" cx="63.656" cy="41.751" r="1.64"/>
		</g>
		<g>
			<circle fill="#D7D7D7" cx="22.753" cy="41.751" r="1.639"/>
		</g>
		<g>
			<rect x="22.752" y="41.279" fill="#D7D7D7" width="40.903" height="0.944"/>
		</g>
		<g>
			<rect x="64.05" y="66.293" fill="#D7D7D7" width="40.354" height="0.944"/>
		</g>
		<g>
			<rect x="104.403" y="48.831" fill="#D7D7D7" width="14.474" height="0.944"/>
		</g>
		<g>
			<rect x="63.185" y="41.751" fill="#D7D7D7" width="0.944" height="25.25"/>
		</g>
		<g>
			<rect x="103.931" y="49.775" fill="#D7D7D7" width="0.944" height="17.227"/>
		</g>
	</g>
	<g>
		<line fill="#D7D7D7" x1="413.436" y1="196.033" x2="413.436" y2="257.53"/>
		<rect x="412.936" y="196.033" fill="#D7D7D7" width="1" height="61.497"/>
	</g>
	<g>
		<g>
			<circle fill="#D7D7D7" cx="413.437" cy="196.846" r="2.318"/>
		</g>
		<g>
			<circle fill="#D7D7D7" cx="413.437" cy="257.53" r="2.318"/>
		</g>
		<g>
			<circle fill="#D7D7D7" cx="375.784" cy="257.53" r="2.318"/>
		</g>
		<g>
			<circle fill="#D7D7D7" cx="375.784" cy="318.651" r="2.318"/>
		</g>
		<g>
			<g>
				<circle fill="#D7D7D7" cx="387.112" cy="175.556" r="1.639"/>
			</g>
		</g>
		<g>
			<g>
				<circle fill="#D7D7D7" cx="387.112" cy="196.846" r="1.639"/>
			</g>
		</g>
		<g>
			<rect x="375.311" y="257.153" fill="#D7D7D7" width="0.945" height="61.498"/>
		</g>
		<g>
			<g>
				<rect x="386.639" y="175.398" fill="#D7D7D7" width="0.944" height="21.448"/>
			</g>
		</g>
		<g>
			<rect x="375.784" y="257.06" fill="#D7D7D7" width="37.652" height="0.943"/>
		</g>
		<g>
			<rect x="387.047" y="196.374" fill="#D7D7D7" width="26.389" height="0.944"/>
		</g>
	</g>
	<g>
		<g>
			<g>
				<circle fill="#D7D7D7" cx="174.699" cy="142.135" r="2.318"/>
			</g>
		</g>
		<g>
			<g>
				<circle fill="#D7D7D7" cx="212.142" cy="142.135" r="2.318"/>
			</g>
		</g>
		<g>
			<g>
				<circle fill="#D7D7D7" cx="174.699" cy="202.626" r="2.318"/>
			</g>
		</g>
		<g>
			<circle fill="#D7D7D7" cx="200.5" cy="224.179" r="2.318"/>
		</g>
		<g>
			<circle fill="#D7D7D7" cx="212.142" cy="80.938" r="2.318"/>
		</g>
		<g>
			<g>
				<circle fill="#D7D7D7" cx="228.452" cy="122.983" r="1.64"/>
			</g>
		</g>
		<g>
			<circle fill="#D7D7D7" cx="228.452" cy="139.03" r="1.64"/>
		</g>
		<g>
			<g>
				<circle fill="#D7D7D7" cx="247.96" cy="139.03" r="1.639"/>
			</g>
		</g>
		<g>
			<g>
				<circle fill="#D7D7D7" cx="247.96" cy="184.833" r="1.639"/>
			</g>
		</g>
		<g>
			<g>
				<circle fill="#D7D7D7" cx="219.485" cy="184.833" r="1.64"/>
			</g>
		</g>
		<g>
			<circle fill="#D7D7D7" cx="219.485" cy="231.009" r="1.64"/>
		</g>
		<g>
			<g>
				<circle fill="#D7D7D7" cx="200.501" cy="202.626" r="1.64"/>
			</g>
		</g>
		<g>
			<rect x="211.67" y="80.938" fill="#D7D7D7" width="0.944" height="61.198"/>
		</g>
		<g>
			<rect x="227.98" y="122.983" fill="#D7D7D7" width="0.944" height="16.047"/>
		</g>
		<g>
			<rect x="247.488" y="139.03" fill="#D7D7D7" width="0.944" height="45.803"/>
		</g>
		<g>
			<rect x="239.642" y="80.454" fill="#D7D7D7" width="0.944" height="43.026"/>
		</g>
		<g>
			<rect x="174.227" y="142.135" fill="#D7D7D7" width="0.944" height="60.491"/>
		</g>
		<g>
			<rect x="219.013" y="184.833" fill="#D7D7D7" width="0.944" height="46.175"/>
		</g>
		<g>
			<rect x="200.028" y="202.626" fill="#D7D7D7" width="0.944" height="21.553"/>
		</g>
		<g>
			<rect x="174.7" y="202.153" fill="#D7D7D7" width="25.801" height="0.943"/>
		</g>
		<g>
			<rect x="174.937" y="141.664" fill="#D7D7D7" width="37.206" height="0.944"/>
		</g>
		<g>
			<rect x="219.484" y="184.361" fill="#D7D7D7" width="28.476" height="0.944"/>
		</g>
		<g>
			<rect x="228.452" y="138.559" fill="#D7D7D7" width="19.508" height="0.944"/>
		</g>
		<g>
			<rect x="228.452" y="122.512" fill="#D7D7D7" width="11.642" height="0.944"/>
		</g>
		<g>
			<rect x="212.143" y="80.465" fill="#D7D7D7" width="28.443" height="0.944"/>
		</g>
	</g>
	<g>
		<g>
			<circle fill="#D7D7D7" cx="303.81" cy="127.703" r="1.64"/>
		</g>
		<g>
			<circle fill="#D7D7D7" cx="332.205" cy="35.549" r="1.64"/>
		</g>
		<g>
			<circle fill="#D7D7D7" cx="312.855" cy="35.549" r="1.64"/>
		</g>
		<g>
			<circle fill="#D7D7D7" cx="312.855" cy="19.554" r="1.64"/>
		</g>
		<g>
			<circle fill="#D7D7D7" cx="303.81" cy="81.372" r="1.64"/>
		</g>
		<g>
			<circle fill="#D7D7D7" cx="332.205" cy="81.372" r="1.64"/>
		</g>
		<g>
			<rect x="303.809" y="80.899" fill="#D7D7D7" width="28.443" height="0.944"/>
		</g>
		<g>
			<rect x="312.856" y="35.078" fill="#D7D7D7" width="19.35" height="0.943"/>
		</g>
		<g>
			<rect x="312.383" y="19.554" fill="#D7D7D7" width="0.943" height="15.996"/>
		</g>
		<g>
			<rect x="331.733" y="35.915" fill="#D7D7D7" width="0.944" height="45.568"/>
		</g>
		<g>
			<rect x="303.337" y="81.483" fill="#D7D7D7" width="0.942" height="45.569"/>
		</g>
	</g>
	<g>
		<rect x="37.175" y="90.611" fill="#D7D7D7" width="1.887" height="144.11"/>
	</g>
	<g>
		<rect x="37.175" y="89.667" fill="#D7D7D7" width="156.691" height="1.888"/>
	</g>
	<g>
		<rect x="38.891" y="201.682" fill="#D7D7D7" width="95.114" height="1.888"/>
	</g>
	<g>
		<rect x="38.119" y="232.834" fill="#D7D7D7" width="31.972" height="1.888"/>
	</g>
	<g>
		<g>
			<rect x="68.416" y="223.706" fill="#D7D7D7" width="98.274" height="1.887"/>
		</g>
	</g>
	<g>
		<rect x="138.016" y="238.81" fill="#D7D7D7" width="96.716" height="1.888"/>
	</g>
	<g>
		<rect x="235.61" y="297.491" fill="#D7D7D7" width="96.715" height="1.887"/>
	</g>
	<g>
		<rect x="68.416" y="224.583" fill="#D7D7D7" width="1.888" height="10.139"/>
	</g>
	<g>
		<rect x="165.864" y="225.296" fill="#D7D7D7" width="1.887" height="47.023"/>
	</g>
	<g>
		<rect x="234.141" y="239.753" fill="#D7D7D7" width="1.888" height="58.682"/>
	</g>
	<g>
		<rect x="329.793" y="257.53" fill="#D7D7D7" width="1.887" height="40.904"/>
	</g>
	<g>
		<rect x="327.905" y="134.033" fill="#D7D7D7" width="1.889" height="48.141"/>
	</g>
	<g>
		<rect x="270.956" y="16.1" fill="#D7D7D7" width="1.888" height="184.032"/>
	</g>
	<g>
		<rect x="339.738" y="62.795" fill="#D7D7D7" width="1.888" height="71.238"/>
	</g>
	<g>
		<rect x="339.738" y="61.35" fill="#D7D7D7" width="30.331" height="1.888"/>
	</g>
	<g>
		<rect x="271.899" y="133.088" fill="#D7D7D7" width="69.727" height="1.888"/>
	</g>
	<g>
		<rect x="271.899" y="198.22" fill="#D7D7D7" width="15.104" height="1.888"/>
	</g>
	<g>
		<rect x="256.796" y="14.31" fill="#D7D7D7" width="47.827" height="1.888"/>
	</g>
	<g>
		<rect x="127.006" y="70.789" fill="#D7D7D7" width="133.094" height="1.888"/>
	</g>
	<g>
		<rect x="255.852" fill="#D7D7D7" width="1.889" height="71.733"/>
	</g>
	<g>
		<rect x="129.89" fill="#D7D7D7" width="1.887" height="71.733"/>
	</g>
	<g>
		<rect x="192.609" y="90.611" fill="#D7D7D7" width="1.888" height="25.489"/>
	</g>
	<g>
		<rect x="132.773" y="114.958" fill="#D7D7D7" width="1.887" height="87.667"/>
	</g>
	<g>
		<rect x="132.773" y="114.63" fill="#D7D7D7" width="61.725" height="1.888"/>
	</g>
	<g>
		<rect x="133.173" y="160.935" fill="#D7D7D7" width="34.946" height="1.888"/>
	</g>
	<g>
		<rect x="369.125" y="199.164" fill="#D7D7D7" width="1.889" height="45.39"/>
	</g>
	<g>
		<rect x="330.737" y="256.587" fill="#D7D7D7" width="33.656" height="1.889"/>
	</g>
	<g>
		<rect x="363.409" y="243.071" fill="#D7D7D7" width="1.889" height="14.459"/>
	</g>
	<g>
		<rect x="364.459" y="243.071" fill="#D7D7D7" width="6.554" height="1.887"/>
	</g>
	<g>
		<rect x="285.586" y="199.164" fill="#D7D7D7" width="2.832" height="133.095"/>
	</g>
	<g>
		<rect x="342.905" y="332.259" fill="#D7D7D7" width="2.832" height="48.77"/>
	</g>
	<g>
		<rect x="287.002" y="330.843" fill="#D7D7D7" width="57.318" height="2.832"/>
	</g>
	<g>
		<rect x="368.653" y="62.795" fill="#D7D7D7" width="2.832" height="133.094"/>
	</g>
	<g>
		<rect x="286.313" y="197.749" fill="#D7D7D7" width="83.756" height="2.832"/>
	</g>
	<g>
		<line fill="#D7D7D7" x1="38.119" y1="142.528" x2="38.119" y2="144.416"/>
	</g>
	<g>
		<rect x="108.127" y="94.466" fill="#D7D7D7" width="2.832" height="126.908"/>
	</g>
	<g>
		<rect x="192.137" fill="#D7D7D7" width="2.832" height="92.094"/>
	</g>
	<g>
		<g>
			<circle fill="#D7D7D7" cx="456.912" cy="15.254" r="4.3"/>
		</g>
		<g>
			<circle fill="#D7D7D7" cx="460.896" cy="229.37" r="4.3"/>
		</g>
		<g>
			<circle fill="#D7D7D7" cx="460.896" cy="182.173" r="3.277"/>
		</g>
		<g>
			<g>
				<circle fill="#D7D7D7" cx="486.173" cy="17.583" r="3.277"/>
			</g>
		</g>
		<g>
			<g>
				<g>
					<circle fill="#D7D7D7" cx="404.05" cy="48.134" r="5.716"/>
				</g>
			</g>
		</g>
		<g>
			<g>
				<g>
					<circle fill="#D7D7D7" cx="486.172" cy="48.134" r="5.715"/>
				</g>
			</g>
		</g>
		<g>
			<g>
				<circle fill="#D7D7D7" cx="404.05" cy="182.173" r="5.716"/>
			</g>
		</g>
		<g>
			<g>
				<rect x="404.049" y="26.218" fill="#D7D7D7" width="53.806" height="1.887"/>
			</g>
		</g>
		<g>
			<g>
				<g>
					<rect x="403.106" y="26.218" fill="#D7D7D7" width="1.889" height="22.559"/>
				</g>
			</g>
		</g>
		<g>
			<g>
				<rect x="455.966" fill="#D7D7D7" width="1.889" height="28.105"/>
			</g>
		</g>
		<g>
			<g>
				<rect x="402.635" y="52.801" fill="#D7D7D7" width="2.831" height="126.908"/>
			</g>
		</g>
		<g>
			<g>
				<rect x="404.049" y="46.718" fill="#D7D7D7" width="82.123" height="2.833"/>
			</g>
		</g>
		<g>
			<rect x="404.049" y="180.757" fill="#D7D7D7" width="56.846" height="2.832"/>
		</g>
		<g>
			<g>
				<rect x="484.756" fill="#D7D7D7" width="2.832" height="45.429"/>
			</g>
		</g>
		<g>
			<rect x="459.479" y="182.923" fill="#D7D7D7" width="2.832" height="46.447"/>
		</g>
	</g>
</g>
<g>
	<circle fill="#D7D7D7" cx="479.297" cy="254.869" r="4.3"/>
	<g>
		<circle fill="#D7D7D7" cx="479.297" cy="195.716" r="4.3"/>
	</g>
	<g>
		<circle fill="#D7D7D7" cx="386.583" cy="383.087" r="4.299"/>
	</g>
	<g>
		<circle fill="#D7D7D7" cx="323.863" cy="380.758" r="4.3"/>
	</g>
	<g>
		<circle fill="#D7D7D7" cx="383.699" cy="195.716" r="4.3"/>
	</g>
	<g>
		<circle fill="#D7D7D7" cx="379.398" cy="158.587" r="4.299"/>
	</g>
	<g>
		<g>
			<circle fill="#D7D7D7" cx="282.332" cy="158.587" r="4.3"/>
		</g>
	</g>
	<g>
		<circle fill="#D7D7D7" cx="350.608" cy="126.021" r="4.3"/>
	</g>
	<g>
		<g>
			<circle fill="#D7D7D7" cx="282.332" cy="99.906" r="4.3"/>
		</g>
	</g>
	<g>
		<g>
			<circle fill="#D7D7D7" cx="186.678" cy="99.906" r="4.299"/>
		</g>
	</g>
	<g>
		<circle fill="#D7D7D7" cx="188.567" cy="216.168" r="4.299"/>
	</g>
	<g>
		<g>
			<circle fill="#D7D7D7" cx="188.567" cy="264.309" r="4.299"/>
		</g>
	</g>
	<g>
		<circle fill="#D7D7D7" cx="260.619" cy="383.087" r="4.3"/>
	</g>
	<circle fill="#D7D7D7" cx="212.793" cy="383.087" r="4.3"/>
	<g>
		<circle fill="#D7D7D7" cx="173.095" cy="17.313" r="4.3"/>
	</g>
	<g>
		<circle fill="#D7D7D7" cx="173.096" cy="66.083" r="3.277"/>
	</g>
	<g>
		<g>
			<circle fill="#D7D7D7" cx="153.062" cy="140.811" r="3.277"/>
		</g>
	</g>
	<g>
		<circle fill="#D7D7D7" cx="350.609" cy="173.691" r="3.276"/>
	</g>
	<circle fill="#D7D7D7" cx="349.586" cy="236.463" r="3.277"/>
	<g>
		<circle fill="#D7D7D7" cx="383.699" cy="236.463" r="2.317"/>
	</g>
	<g>
		<g>
			<circle fill="#D7D7D7" cx="186.679" cy="140.811" r="2.318"/>
		</g>
	</g>
	<g>
		<circle fill="#D7D7D7" cx="386.582" cy="326.608" r="5.715"/>
	</g>
	<circle fill="#D7D7D7" cx="260.619" cy="326.608" r="5.716"/>
	<circle fill="#D7D7D7" cx="407.873" cy="307.729" r="5.715"/>
	<g>
		<g>
			<circle fill="#D7D7D7" cx="323.862" cy="307.729" r="5.715"/>
		</g>
	</g>
	<circle fill="#D7D7D7" cx="407.873" cy="173.691" r="5.715"/>
	<g>
		<g>
			<circle fill="#D7D7D7" cx="245.516" cy="264.309" r="5.715"/>
		</g>
	</g>
	<g>
		<circle fill="#D7D7D7" cx="147.347" cy="336.048" r="5.715"/>
	</g>
	<g>
		<g>
			<circle fill="#D7D7D7" cx="230.414" cy="199.177" r="5.715"/>
		</g>
	</g>
	<g>
		<circle fill="#D7D7D7" cx="147.347" cy="199.177" r="5.715"/>
	</g>
	<circle fill="#D7D7D7" cx="230.414" cy="66.083" r="5.715"/>
	<g>
		<g>
			<circle fill="#D7D7D7" cx="398.539" cy="349.039" r="1.64"/>
		</g>
		<g>
			<circle fill="#D7D7D7" cx="413.013" cy="349.039" r="1.639"/>
		</g>
		<g>
			<circle fill="#D7D7D7" cx="413.013" cy="331.576" r="1.639"/>
		</g>
		<g>
			<circle fill="#D7D7D7" cx="453.759" cy="331.576" r="1.64"/>
		</g>
		<g>
			<circle fill="#D7D7D7" cx="453.759" cy="356.591" r="1.64"/>
		</g>
		<g>
			<rect x="413.012" y="331.104" fill="#D7D7D7" width="40.354" height="0.943"/>
		</g>
		<g>
			<rect x="398.539" y="348.566" fill="#D7D7D7" width="14.474" height="0.944"/>
		</g>
		<g>
			<rect x="453.288" y="331.34" fill="#D7D7D7" width="0.943" height="25.251"/>
		</g>
		<g>
			<rect x="412.541" y="331.34" fill="#D7D7D7" width="0.944" height="17.227"/>
		</g>
	</g>
	<g>
		<line fill="#D7D7D7" x1="103.979" y1="202.308" x2="103.979" y2="140.811"/>
		<rect x="103.479" y="140.811" fill="#D7D7D7" width="1" height="61.497"/>
	</g>
	<g>
		<g>
			<circle fill="#D7D7D7" cx="103.979" cy="201.495" r="2.318"/>
		</g>
		<g>
			<circle fill="#D7D7D7" cx="103.979" cy="140.811" r="2.318"/>
		</g>
		<g>
			<circle fill="#D7D7D7" cx="141.632" cy="140.811" r="2.318"/>
		</g>
		<g>
			<circle fill="#D7D7D7" cx="141.632" cy="79.69" r="2.318"/>
		</g>
		<g>
			<g>
				<circle fill="#D7D7D7" cx="130.304" cy="222.786" r="1.639"/>
			</g>
		</g>
		<g>
			<g>
				<circle fill="#D7D7D7" cx="130.304" cy="201.495" r="1.639"/>
			</g>
		</g>
		<g>
			<rect x="141.16" y="79.69" fill="#D7D7D7" width="0.944" height="61.499"/>
		</g>
		<g>
			<g>
				<rect x="129.832" y="201.495" fill="#D7D7D7" width="0.944" height="21.448"/>
			</g>
		</g>
		<g>
			<rect x="103.979" y="140.338" fill="#D7D7D7" width="37.653" height="0.944"/>
		</g>
		<g>
			<rect x="103.979" y="201.022" fill="#D7D7D7" width="26.389" height="0.945"/>
		</g>
	</g>
	<g>
		<g>
			<g>
				<circle fill="#D7D7D7" cx="342.716" cy="256.206" r="2.318"/>
			</g>
		</g>
		<g>
			<g>
				<circle fill="#D7D7D7" cx="305.274" cy="256.206" r="2.318"/>
			</g>
		</g>
		<g>
			<g>
				<circle fill="#D7D7D7" cx="342.716" cy="195.716" r="2.318"/>
			</g>
		</g>
		<g>
			<circle fill="#D7D7D7" cx="316.915" cy="174.162" r="2.318"/>
		</g>
		<g>
			<circle fill="#D7D7D7" cx="305.274" cy="317.403" r="2.318"/>
		</g>
		<g>
			<g>
				<path fill="#D7D7D7" d="M287.324,275.358c0-0.906,0.735-1.64,1.638-1.64c0.907,0,1.643,0.733,1.643,1.64
					c0,0.905-0.735,1.639-1.643,1.639C288.059,276.997,287.324,276.264,287.324,275.358z"/>
			</g>
		</g>
		<g>
			<path fill="#D7D7D7" d="M287.324,259.312c0-0.906,0.735-1.64,1.638-1.64c0.907,0,1.643,0.733,1.643,1.64
				c0,0.905-0.735,1.639-1.643,1.639C288.059,260.95,287.324,260.217,287.324,259.312z"/>
		</g>
		<g>
			<g>
				<circle fill="#D7D7D7" cx="269.456" cy="259.312" r="1.639"/>
			</g>
		</g>
		<g>
			<g>
				<circle fill="#D7D7D7" cx="269.456" cy="213.508" r="1.639"/>
			</g>
		</g>
		<g>
			<g>
				<circle fill="#D7D7D7" cx="297.931" cy="213.508" r="1.64"/>
			</g>
		</g>
		<g>
			<circle fill="#D7D7D7" cx="297.931" cy="167.333" r="1.64"/>
		</g>
		<g>
			<g>
				<circle fill="#D7D7D7" cx="316.915" cy="195.716" r="1.641"/>
			</g>
		</g>
		<g>
			<rect x="304.801" y="256.206" fill="#D7D7D7" width="0.944" height="61.197"/>
		</g>
		<g>
			<rect x="288.491" y="259.312" fill="#D7D7D7" width="0.945" height="16.047"/>
		</g>
		<g>
			<rect x="268.983" y="213.508" fill="#D7D7D7" width="0.945" height="45.804"/>
		</g>
		<g>
			<rect x="276.83" y="274.861" fill="#D7D7D7" width="0.944" height="43.026"/>
		</g>
		<g>
			<rect x="342.245" y="195.716" fill="#D7D7D7" width="0.943" height="60.49"/>
		</g>
		<g>
			<rect x="297.459" y="167.333" fill="#D7D7D7" width="0.943" height="46.175"/>
		</g>
		<g>
			<rect x="316.443" y="174.162" fill="#D7D7D7" width="0.944" height="21.554"/>
		</g>
		<g>
			<rect x="316.915" y="195.244" fill="#D7D7D7" width="25.801" height="0.943"/>
		</g>
		<g>
			<rect x="305.273" y="255.733" fill="#D7D7D7" width="37.206" height="0.944"/>
		</g>
		<g>
			<rect x="269.456" y="213.036" fill="#D7D7D7" width="28.476" height="0.944"/>
		</g>
		<g>
			<rect x="269.456" y="258.839" fill="#D7D7D7" width="19.508" height="0.943"/>
		</g>
		<g>
			<rect x="277.323" y="274.886" fill="#D7D7D7" width="11.641" height="0.943"/>
		</g>
		<g>
			<rect x="276.83" y="316.933" fill="#D7D7D7" width="28.443" height="0.943"/>
		</g>
	</g>
	<g>
		<g>
			<circle fill="#D7D7D7" cx="213.606" cy="270.638" r="1.64"/>
		</g>
		<g>
			<circle fill="#D7D7D7" cx="185.21" cy="362.792" r="1.64"/>
		</g>
		<g>
			<circle fill="#D7D7D7" cx="204.561" cy="362.792" r="1.64"/>
		</g>
		<g>
			<circle fill="#D7D7D7" cx="204.561" cy="378.788" r="1.64"/>
		</g>
		<g>
			<circle fill="#D7D7D7" cx="213.606" cy="316.97" r="1.64"/>
		</g>
		<g>
			<circle fill="#D7D7D7" cx="185.21" cy="316.97" r="1.64"/>
		</g>
		<g>
			<rect x="185.163" y="316.498" fill="#D7D7D7" width="28.443" height="0.944"/>
		</g>
		<g>
			<rect x="185.209" y="362.32" fill="#D7D7D7" width="19.35" height="0.943"/>
		</g>
		<g>
			<rect x="204.088" y="362.792" fill="#D7D7D7" width="0.944" height="15.996"/>
		</g>
		<g>
			<rect x="184.738" y="316.858" fill="#D7D7D7" width="0.944" height="45.568"/>
		</g>
		<g>
			<rect x="213.135" y="271.288" fill="#D7D7D7" width="0.943" height="45.57"/>
		</g>
	</g>
	<g>
		<rect x="478.354" y="163.62" fill="#D7D7D7" width="1.887" height="144.11"/>
	</g>
	<g>
		<rect x="323.549" y="306.786" fill="#D7D7D7" width="156.691" height="1.888"/>
	</g>
	<g>
		<rect x="383.411" y="194.772" fill="#D7D7D7" width="95.113" height="1.888"/>
	</g>
	<g>
		<rect x="447.325" y="163.62" fill="#D7D7D7" width="31.972" height="1.888"/>
	</g>
	<g>
		<g>
			<rect x="350.725" y="172.748" fill="#D7D7D7" width="98.275" height="1.887"/>
		</g>
	</g>
	<g>
		<rect x="282.684" y="157.644" fill="#D7D7D7" width="96.715" height="1.888"/>
	</g>
	<g>
		<rect x="185.09" y="98.963" fill="#D7D7D7" width="96.715" height="1.887"/>
	</g>
	<g>
		<rect x="447.112" y="163.62" fill="#D7D7D7" width="1.889" height="10.138"/>
	</g>
	<g>
		<rect x="349.665" y="126.022" fill="#D7D7D7" width="1.887" height="47.022"/>
	</g>
	<g>
		<rect x="281.387" y="99.906" fill="#D7D7D7" width="1.888" height="58.682"/>
	</g>
	<g>
		<rect x="185.735" y="99.906" fill="#D7D7D7" width="1.887" height="40.904"/>
	</g>
	<g>
		<rect x="187.623" y="216.168" fill="#D7D7D7" width="1.888" height="48.141"/>
	</g>
	<g>
		<rect x="244.572" y="198.209" fill="#D7D7D7" width="1.888" height="184.032"/>
	</g>
	<g>
		<rect x="175.79" y="264.309" fill="#D7D7D7" width="1.888" height="71.237"/>
	</g>
	<g>
		<rect x="147.347" y="335.104" fill="#D7D7D7" width="30.331" height="1.888"/>
	</g>
	<g>
		<rect x="175.79" y="263.365" fill="#D7D7D7" width="69.727" height="1.888"/>
	</g>
	<g>
		<rect x="230.414" y="198.233" fill="#D7D7D7" width="15.104" height="1.888"/>
	</g>
	<g>
		<rect x="212.792" y="382.144" fill="#D7D7D7" width="47.828" height="1.889"/>
	</g>
	<g>
		<rect x="257.315" y="325.665" fill="#D7D7D7" width="133.095" height="1.887"/>
	</g>
	<g>
		<rect x="259.674" y="326.608" fill="#D7D7D7" width="1.889" height="71.732"/>
	</g>
	<g>
		<rect x="385.639" y="326.608" fill="#D7D7D7" width="1.887" height="71.732"/>
	</g>
	<g>
		<rect x="322.918" y="282.241" fill="#D7D7D7" width="1.888" height="25.488"/>
	</g>
	<g>
		<rect x="382.755" y="195.716" fill="#D7D7D7" width="1.888" height="87.667"/>
	</g>
	<g>
		<rect x="322.918" y="281.823" fill="#D7D7D7" width="61.725" height="1.888"/>
	</g>
	<g>
		<rect x="349.296" y="235.519" fill="#D7D7D7" width="34.946" height="1.889"/>
	</g>
	<g>
		<rect x="146.402" y="153.788" fill="#D7D7D7" width="1.889" height="45.389"/>
	</g>
	<g>
		<rect x="153.023" y="139.866" fill="#D7D7D7" width="33.655" height="1.888"/>
	</g>
	<g>
		<rect x="152.119" y="140.811" fill="#D7D7D7" width="1.888" height="14.46"/>
	</g>
	<g>
		<rect x="146.402" y="153.383" fill="#D7D7D7" width="6.554" height="1.888"/>
	</g>
	<g>
		<rect x="228.998" y="66.083" fill="#D7D7D7" width="2.832" height="133.095"/>
	</g>
	<g>
		<rect x="171.679" y="17.313" fill="#D7D7D7" width="2.832" height="48.769"/>
	</g>
	<g>
		<rect x="173.095" y="64.667" fill="#D7D7D7" width="57.318" height="2.832"/>
	</g>
	<g>
		<rect x="145.931" y="202.452" fill="#D7D7D7" width="2.832" height="133.094"/>
	</g>
	<g>
		<rect x="147.347" y="197.761" fill="#D7D7D7" width="83.756" height="2.832"/>
	</g>
	<g>
		<line fill="#D7D7D7" x1="479.296" y1="255.813" x2="479.296" y2="253.925"/>
	</g>
	<g>
		<rect x="406.458" y="176.968" fill="#D7D7D7" width="2.831" height="126.908"/>
	</g>
	<g>
		<rect x="322.447" y="306.247" fill="#D7D7D7" width="2.832" height="92.094"/>
	</g>
	<g>
		<g>
			<circle fill="#D7D7D7" cx="60.504" cy="383.087" r="4.3"/>
		</g>
		<g>
			<circle fill="#D7D7D7" cx="56.52" cy="168.972" r="4.3"/>
		</g>
		<g>
			<circle fill="#D7D7D7" cx="56.52" cy="216.168" r="3.277"/>
		</g>
		<g>
			<g>
				<circle fill="#D7D7D7" cx="31.243" cy="380.759" r="3.277"/>
			</g>
		</g>
		<g>
			<g>
				<circle fill="#D7D7D7" cx="14.082" cy="380.307" r="3.277"/>
			</g>
		</g>
		<g>
			<g>
				<g>
					<circle fill="#D7D7D7" cx="113.365" cy="350.207" r="5.716"/>
				</g>
			</g>
		</g>
		<g>
			<g>
				<g>
					<circle fill="#D7D7D7" cx="31.243" cy="350.207" r="5.715"/>
				</g>
			</g>
		</g>
		<g>
			<g>
				<circle fill="#D7D7D7" cx="113.365" cy="216.168" r="5.716"/>
			</g>
		</g>
		<g>
			<g>
				<rect x="59.561" y="370.236" fill="#D7D7D7" width="53.805" height="1.888"/>
			</g>
		</g>
		<g>
			<g>
				<g>
					<rect x="112.421" y="349.564" fill="#D7D7D7" width="1.888" height="22.56"/>
				</g>
			</g>
		</g>
		<g>
			<g>
				<rect x="59.561" y="370.236" fill="#D7D7D7" width="1.889" height="28.104"/>
			</g>
		</g>
		<g>
			<g>
				<rect x="13.139" y="350.086" fill="#D7D7D7" width="1.888" height="48.255"/>
			</g>
		</g>
		<g>
			<g>
				<rect x="13.139" y="349.263" fill="#D7D7D7" width="18.104" height="1.888"/>
			</g>
		</g>
		<g>
			<g>
				<rect x="111.949" y="218.632" fill="#D7D7D7" width="2.832" height="126.908"/>
			</g>
		</g>
		<g>
			<g>
				<rect x="31.243" y="348.79" fill="#D7D7D7" width="82.123" height="2.833"/>
			</g>
		</g>
		<g>
			<rect x="56.521" y="214.753" fill="#D7D7D7" width="56.845" height="2.832"/>
		</g>
		<g>
			<g>
				<rect x="29.827" y="352.913" fill="#D7D7D7" width="2.832" height="45.428"/>
			</g>
		</g>
		<g>
			<rect x="55.104" y="168.972" fill="#D7D7D7" width="2.832" height="46.446"/>
		</g>
	</g>
</g>
</svg>
